<svg width="125" height="170" viewBox="0 0 125 170" xmlns="http://www.w3.org/2000/svg"><title>F</title><path d="M48.5 83c.8 4.4 1.767 8.767 2.9 13.1s2.033 8.7 2.7 13.1c.667 4.267.967 8.6.9 13-.067 4.4-.3 8.8-.7 13.2l-.8 4.4-.8 4.4A41.208 41.208 0 0 1 50 151c-1.133 2.267-2.633 4.133-4.5 5.6 0 .133.067.167.2.1s.133-.033 0 .1l-.6.2c.133.133.233.133.3 0 .067-.133.1-.133.1 0s-.067.2-.2.2c-.267.133-.333.133-.2 0s.133-.2 0-.2h-.2v.4c-.133 0-.2-.067-.2-.2h-.2c0 .267-.067.333-.2.2-.133.133-.133.167 0 .1s.2-.033.2.1v.2h.2c0 .133-.067.167-.2.1s-.2.033-.2.3l-.2-.2c-.133 0-.133.067 0 .2-.133 0-.2-.067-.2-.2l-.2.2c-.133.133-.067.2.2.2l-.6.2c.133 0 .167-.033.1-.1s-.167-.1-.3-.1c-.133 0-.167.067-.1.2s.167.133.3 0c-.133.133-.333.2-.6.2-.133.133-.2.133-.2 0-.267.133-.333.2-.2.2s.133.067 0 .2c0-.267-.133-.267-.4 0-.267 0-.4-.067-.4-.2h.6v-.2l.2.2v-.2h-.4c-.133.133-.333.2-.6.2.133.133.2.267.2.4.267-.133.267-.167 0-.1s-.267.1 0 .1c-.133.133-.2.133-.2 0s-.033-.167-.1-.1-.1.033-.1-.1c-.133 0-.2.033-.2.1s-.067.1-.2.1c0 .133.033.167.1.1s.1-.033.1.1c-.133 0-.233-.033-.3-.1-.067-.067-.233-.1-.5-.1-.133.133-.267.2-.4.2-.133.133-.2.133-.2 0-.267 0-.4-.067-.4-.2l-.2.2c.133 0 .2.067.2.2h-.8v-.2c-.4 0-.667.067-.8.2-.133-.133-.1-.2.1-.2h-.1a.888.888 0 0 1-.4-.1.888.888 0 0 0-.4-.1c-.133 0-.2.033-.2.1s.067.1.2.1c-.4 0-.6-.067-.6-.2h-1v-.2h-1 .2c-.267-.133-.467-.2-.6-.2h-.2l-.2-.2c0 .133.067.2.2.2-.267 0-.333-.067-.2-.2-.267 0-.433-.033-.5-.1s-.167-.1-.3-.1l-.2-.2c-.267 0-.467-.067-.6-.2h-.4c-.133 0-.2-.033-.2-.1s-.067-.1-.2-.1l-.4-.4c-1.867-.667-3.4-1.6-4.6-2.8a3.134 3.134 0 0 0-.8-.6l-.6-.6c-.4-.4-.667-.733-.8-1-.4-.133-.667-.4-.8-.8l-.4-.4c0-.133-.033-.2-.1-.2s-.1-.067-.1-.2l-.4-.4c0-.133-.033-.2-.1-.2s-.1-.067-.1-.2c-.133-.133-.2-.267-.2-.4l-.4-.4c0-.267-.067-.4-.2-.4v-.4l-.2-.2c0-.133-.067-.267-.2-.4v-.2l-.2-.2c0-.267-.067-.467-.2-.6-.267-.533-.467-1-.6-1.4-.133-.4-.267-.833-.4-1.3a18.149 18.149 0 0 0-.6-1.7c-.133-.267-.2-.667-.2-1.2-.133-.267-.2-.467-.2-.6 0-.133-.067-.333-.2-.6 0-.133-.033-.3-.1-.5s-.1-.433-.1-.7v-.2a28.117 28.117 0 0 1-.6-3.1c-.133-1-.267-2.033-.4-3.1 0-.267-.033-.5-.1-.7-.067-.2-.1-.433-.1-.7V128a.888.888 0 0 0-.1-.4c-.067-.133-.1-.333-.1-.6 0-.133.033-.2.1-.2s.1-.067.1-.2c0-.267-.033-.367-.1-.3s-.1.033-.1-.1v-2.4c-.133-.533-.2-1.267-.2-2.2h.2l-.2-.2c.133-.133.2-.267.2-.4v-.8c0-.267-.033-.5-.1-.7-.067-.2-.1-.433-.1-.7v-1.6c.133-.4.2-1 .2-1.8v-.4c0-.533.067-.933.2-1.2v-1.6c0-.267.033-.633.1-1.1.067-.467.1-.833.1-1.1 0-.267.033-.467.1-.6.067-.133.1-.333.1-.6v1c0 .667-.033 1.333-.1 2s-.1 1.4-.1 2.2V115.2c.133-.133.2-.4.2-.8 0 .133.033.2.1.2s.1-.067.1-.2V117l.2-.2v-1.4c0-.667.067-1.067.2-1.2a6.729 6.729 0 0 1-.1-2 20.69 20.69 0 0 1 .3-2v-.4l.2-.8v-.4V109.8l.2.2-.2.6c0 .133.067.2.2.2v1.2c-.133.4-.2.933-.2 1.6v.4c0 .267.067.4.2.4-.133 0-.2.067-.2.2-.133.533-.167.967-.1 1.3.067.333.033.767-.1 1.3.133 0 .2-.133.2-.4 0-1.067.067-1.867.2-2.4v3.6c0 .133.067.2.2.2-.133 0-.2.067-.2.2v.4c.133.267.167.5.1.7-.067.2-.1.433-.1.7v.2c0 .533.067.933.2 1.2v1.2c.133 0 .167-.033.1-.1s-.033-.1.1-.1c0-.267-.067-.4-.2-.4.133-.267.167-.567.1-.9a4.635 4.635 0 0 1-.1-.9c0-.533.033-1.1.1-1.7.067-.6.1-1.167.1-1.7v-.4c.133.133.167.333.1.6-.067.267-.033.4.1.4v.2c-.133.267-.167.5-.1.7.067.2.1.433.1.7V118v.1c0 .2.067.3.2.3 0-.267.033-.5.1-.7.067-.2.033-.433-.1-.7.267.267.333.533.2.8s-.133.467 0 .6v-.4c.267.267.333.4.2.4.133-.133.2-.333.2-.6 0-.267-.033-.6-.1-1s-.033-.733.1-1v-.2c0-.4.067-.6.2-.6 0 .267-.033.567-.1.9-.067.333-.1.633-.1.9v-.4c0-.133.033-.233.1-.3.067-.067.1-.167.1-.3.133-.267.167-.567.1-.9a4.635 4.635 0 0 1-.1-.9c0-.133.067-.2.2-.2v-.4c.133-.133.133-.2 0-.2v-.8c.4 0 .4.2 0 .6.267.267.267.533 0 .8.133 0 .2-.067.2-.2v2.6c0 .133.033.167.1.1s.1-.033.1.1h-.2c0 .133.067.2.2.2-.133 0-.2.067-.2.2s.067.133.2 0v.4c.133 0 .167-.067.1-.2s-.033-.133.1 0c-.133.133-.167.267-.1.4s.033.267-.1.4v-.2 1.2c0 .4-.067.733-.2 1 .133.133.2 0 .2-.4v-1.6c.133 0 .2.133.2.4 0-.133.067-.267.2-.4v.2c.133 0 .067.133-.2.4.133 0 .2.067.2.2s-.067.2-.2.2c.133.4.2 1.067.2 2 0 .133.067.133.2 0 0 .133-.067.2-.2.2v.2c0 .133.033.167.1.1s.1-.033.1.1h-.2c.267.267.267.533 0 .8v.4c.133.133.2.267.2.4V124.4c.267.267.333.4.2.4s-.167.067-.1.2.033.2-.1.2c0 .133.033.2.1.2s.1.067.1.2c-.133 0-.167.033-.1.1s.033.1-.1.1h.2c0 .133-.067.267-.2.4.133.267.267.467.4.6 0-.267-.033-.433-.1-.5s-.033-.233.1-.5c0-.133-.033-.167-.1-.1s-.1.033-.1-.1V123c0-.133-.067-.2-.2-.2v-.6l.2.2c0-.133-.033-.3-.1-.5s-.033-.433.1-.7c0-.4-.033-.833-.1-1.3-.067-.467-.033-.9.1-1.3-.133-.267-.167-.433-.1-.5s.1-.233.1-.5c.133.133.167.3.1.5s-.033.433.1.7c-.133.267-.133.667 0 1.2v.8-.4c.133 0 .2-.133.2-.4v-.8c0-.267-.033-.5-.1-.7-.067-.2-.033-.433.1-.7v-.6c0-4.8.167-9.633.5-14.5.333-4.867.967-9.7 1.9-14.5V88c-.133.133-.2.333-.2.6v-.8c0-.667.133-1.533.4-2.6 0-.133.067-.267.2-.4v-.6c.133 0 .2-.267.2-.8v.2-.6l.2.2c0-.267.033-.533.1-.8s.1-.533.1-.8c.267-.533.4-1 .4-1.4-.133 0-.2.067-.2.2v.4c-.133-.133-.133-.333 0-.6.133-.267.2-.467.2-.6.267-.533.4-1 .4-1.4.267-.533.467-1 .6-1.4v-.2l.2-.2-.4 1.2v.4l-.2.2c.133.133.2.133.2 0s.067-.2.2-.2v-.4l.4-1c0-.133.033-.2.1-.2s.1-.067.1-.2c.133-.267.233-.5.3-.7.067-.2.167-.433.3-.7l.6-1.8v-.6c.267-.933.533-1.533.8-1.8.267-.533.4-.867.4-1 .267-.533.4-.867.4-1 .133 0 .133.067 0 .2s-.133.267 0 .4c-.133.133-.2.267-.2.4s-.067.2-.2.2c0 .267-.067.467-.2.6 0 .133.067.267.2.4.533-1.067 1.033-2.1 1.5-3.1a29.07 29.07 0 0 1 1.7-3.1c.133-.133.2-.333.2-.6l.4-.4c0-.267.067-.5.2-.7.133-.2.2-.433.2-.7l.2-.2c.533-.8.8-1.4.8-1.8-.133 0-.167.067-.1.2s.033.2-.1.2l-.4.6v.2l-.4.8-.4.6-.2.2c.133-.133.133-.2 0-.2.133 0 .2-.067.2-.2.267-.4.467-.767.6-1.1.133-.333.333-.7.6-1.1l-.4.4-.2.4c-.133.133-.2.267-.2.4s-.067.2-.2.2c-.267.667-.533 1.133-.8 1.4l-.6 1.2c0 .267-.133.467-.4.6 0 .133-.133.467-.4 1 0-.267.067-.533.2-.8l.4-.8c.133-.267.233-.5.3-.7.067-.2.233-.433.5-.7.133-.267.267-.567.4-.9.133-.333.267-.633.4-.9s.233-.433.3-.5c.067-.067.167-.233.3-.5.133-.133.2-.267.2-.4s.067-.267.2-.4l.4-.8c.133-.267.333-.533.6-.8 0-.267.133-.533.4-.8.133-.267.2-.533.2-.8.267-.267.4-.467.4-.6.4-.4.667-.733.8-1 .133-.133.333-.467.6-1 0 .267-.067.467-.2.6-.133.133-.267.333-.4.6.133 0 .2-.067.2-.2s.133-.267.4-.4l.2-.2c.4-.4.7-.733.9-1 .2-.267.433-.533.7-.8l.4-.8c0-.133.067-.233.2-.3.133-.067.2-.167.2-.3.267-.133.533-.467.8-1l.2-.4c0-.133.067-.2.2-.2l.6-.6.6-.6c0-.133.033-.2.1-.2s.1-.067.1-.2l.4-.4.6-.6.4-.4h.2c.133-.133.233-.2.3-.2.067 0 .167-.133.3-.4.133 0 .2-.067.2-.2.267-.133.467-.267.6-.4.133-.133.333-.2.6-.2.267-.267.467-.4.6-.4.267 0 .533-.133.8-.4.133.133.233.167.3.1.067-.067.167-.033.3.1l.4-.4h.6c.8-.8 1.4-1.333 1.8-1.6 1.333-1.067 2.2-1.533 2.6-1.4.8 0 .8 1.267 0 3.8-1.067 3.067-2.133 6.1-3.2 9.1-1.067 3-1.8 6.167-2.2 9.5a71.89 71.89 0 0 0-.9 9.9 45.61 45.61 0 0 0 .9 9.9zm-31.8 38.2c-.133 0-.2.133-.2.4s.067.4.2.4v-.8zm2-.8v-1 1zm1.4-5.6c-.133 0-.2.267-.2.8l.2-.8zm.4 8.6c0-.4-.067-.733-.2-1v1h.2zm0-5.2v.6c0 .267-.033.467-.1.6-.067.133-.033.333.1.6v-1.8zm15.6-60.6c0 .133.033.233.1.3.067.067.1.167.1.3-.267.533-.4.867-.4 1l1.8-2.4c0-.133.133-.333.4-.6 0-.133.033-.233.1-.3.067-.067.1-.233.1-.5.133-.133.2-.233.2-.3 0-.067.067-.167.2-.3.267-.267.533-.667.8-1.2l.6-.6c0-.267.133-.533.4-.8h-.4c0 .133-.133.333-.4.6 0 .133-.067.267-.2.4s-.267.333-.4.6a3.134 3.134 0 0 0-.6.8h-.2c0 .267-.133.533-.4.8s-.333.4-.2.4c-.133.267-.233.433-.3.5-.067.067-.167.233-.3.5-.133.267-.333.4-.6.4 0-.133.033-.233.1-.3.067-.067.1-.167.1-.3-.133.133-.333.467-.6 1zM33.5 63c-.133.133-.2.233-.2.3 0 .067-.067.167-.2.3.4-.667.767-1.267 1.1-1.8.333-.533.7-1.133 1.1-1.8h-.2c0 .133-.067.267-.2.4l-.4.8c-.133.133-.267.2-.4.2 0 .133-.033.233-.1.3-.067.067-.1.167-.1.3 0 .133-.133.467-.4 1zm-7.8 16v.8c.133-.267.2-.5.2-.7 0-.2.067-.433.2-.7.133 0 0 .2-.4.6zm-.2 1.8l.2.4c.133-.267.2-.6.2-1s.067-.733.2-1c.4-1.067.767-2.133 1.1-3.2a21.49 21.49 0 0 1 1.3-3.2h-.2c-.267.667-.567 1.5-.9 2.5-.333 1-.633 1.833-.9 2.5 0 .133-.067.333-.2.6l-.2.2c0 .267-.067.467-.2.6V79.8c-.133.133-.2.267-.2.4s-.067.333-.2.6zm-1.2 5.6v.4a15.2 15.2 0 0 0 .6-2.5 15.2 15.2 0 0 1 .6-2.5l-.2.2c-.267.533-.4.933-.4 1.2 0 .133-.033.2-.1.2s-.1.067-.1.2a.888.888 0 0 1-.1.4.888.888 0 0 0-.1.4c-.133.533-.2 1.2-.2 2zm-2.4 47.2v-.6c0 .133-.033.2-.1.2s-.1.067-.1.2c.133 0 .167.033.1.1s-.033.1.1.1zm-.6-10.8c0 .267.067.4.2.4-.133-.267-.2-.867-.2-1.8v1.4zm0 5.4v.8l.2-.2c0-.4-.067-.667-.2-.8l.2-.2c-.133 0-.2-.067-.2-.2V127v.4c-.133 0-.133.067 0 .2-.133 0-.2.067-.2.2h.2l-.2.2c.133-.133.2-.067.2.2zm0 1.8c.133.133.2.133.2 0V130.6 129h-.2c0 .267.067.467.2.6-.133 0-.167.067-.1.2s.033.2-.1.2zm.2 1.2v.2l.2-.2v-.6h-.2V131.2zm.2 1.8h.2c0-.4-.067-.6-.2-.6v.2c0-.267-.067-.4-.2-.4.133.267.167.467.1.6-.067.133-.033.267.1.4v-.2zm0 .6c0 .133.067.2.2.2v.4c.133-.133.133-.267 0-.4 0-.133-.067-.2-.2-.2zm.4 1.4v-.8c-.133 0-.2.267-.2.8h.2zm.2 2.6l.2-.2c-.133-.133-.2-.267-.2-.4v-.2c0-.133-.033-.2-.1-.2s-.1-.067-.1-.2h.2l-.2-.4v.6c.133.133.167.233.1.3-.067.067-.033.167.1.3v.4zm.2 1.4c.267-.133.333-.3.2-.5s-.2-.367-.2-.5v1zm.4.8c0 .4.067.667.2.8 0-.133-.033-.233-.1-.3-.067-.067-.1-.233-.1-.5zm21 18c0 .133.133.2.4.2-.133-.133-.133-.267 0-.4-.133 0-.233.033-.3.1-.067.067-.167.1-.3.1l-.2.2h.2l.2-.2zM40.3 53.4c1.333-1.6 2.7-3.1 4.1-4.5l4.3-4.3c-.133 0-.233.033-.3.1-.067.067-.167.1-.3.1-.267.133-.6.4-1 .8-.267.133-.433.233-.5.3-.067.067-.233.167-.5.3l-.4.4a3.134 3.134 0 0 1-.8.6 1.567 1.567 0 0 0-.3.4 1.567 1.567 0 0 1-.3.4c-.267.267-.467.5-.6.7-.133.2-.333.433-.6.7l-.4.4c-.4.4-.533.6-.4.6 0 .267-.067.467-.2.6-.133.133-.267.333-.4.6-.4.133-.733.533-1 1.2-.133.133-.2.233-.2.3 0 .067-.067.167-.2.3zm74.8-34.2a30.37 30.37 0 0 1 4.7 4c1.4 1.467 2.5 3.067 3.3 4.8a11.962 11.962 0 0 1 1.1 5.5c-.067 1.933-.633 3.9-1.7 5.9-1.867 3.067-4.067 5.233-6.6 6.5-2.533 1.267-5.2 1.633-8 1.1-.267 0-.467-.067-.6-.2-.133.133-.4.2-.8.2h-.6c-.533-.133-.967-.2-1.3-.2-.333 0-.7-.067-1.1-.2-1.067 0-2.4-.2-4-.6-.533-.267-1-.4-1.4-.4-.133-.133-.333-.2-.6-.2-.133 0-.2-.067-.2-.2a12.36 12.36 0 0 0-1.9-.6 12.36 12.36 0 0 1-1.9-.6c-.133-.133-.267-.2-.4-.2s-.267-.067-.4-.2c-.267-.133-.467-.2-.6-.2-.133 0-.333-.067-.6-.2-.133 0-.2-.033-.2-.1s-.067-.1-.2-.1-.2-.067-.2-.2c-.267 0-.533-.067-.8-.2l-.2-.2h-.2a38.43 38.43 0 0 0-2.8-.8c.133 0 .2-.067.2-.2h-.4l-.6-.2c-.133-.133-.333-.2-.6-.2h-.2c-.133-.133-.233-.2-.3-.2-.067 0-.167-.067-.3-.2h-.2l-1.2-.6h-.2a5.487 5.487 0 0 0-.7-.3 5.487 5.487 0 0 1-.7-.3h-.2l-1.2-.6c-.267 0-.4-.033-.4-.1s-.067-.1-.2-.1h.6c.4.133.767.267 1.1.4.333.133.767.267 1.3.4 0 .133.033.167.1.1s.1-.033.1.1h.6c-.133 0-.267-.067-.4-.2v-.2c.267 0 .533.067.8.2s.533.2.8.2c0-.133-.067-.2-.2-.2s-.233-.033-.3-.1c-.067-.067-.233-.1-.5-.1-.4 0-.6-.133-.6-.4-.4 0-.8-.1-1.2-.3-.4-.2-.8-.367-1.2-.5l-.2-.2-.4-.2c-.133 0-.2-.067-.2-.2l.4.2h.2c.133.133.2.133.2 0l.4.2.2-.2c0 .133.133.2.4.2h.2c.267.267.433.4.5.4s.233.067.5.2h.2c.133 0 .2-.067.2-.2 0 .133.067.267.2.4.267.133.5.2.7.2.2 0 .433.067.7.2.133 0 .167-.033.1-.1s-.167-.1-.3-.1c-.267-.133-.467-.2-.6-.2-.133 0-.333-.067-.6-.2 0-.133.067-.133.2 0s.2.133.2 0c.267.133.5.2.7.2.2 0 .433.067.7.2l.2.2c0-.133.033-.167.1-.1s.1.033.1-.1c0 .133.067.2.2.2l.2.2c.267-.133.4-.133.4 0s.133.2.4.2h.2c.133 0 .233.033.3.1.067.067.167.1.3.1.267.133.4.167.4.1s.133-.033.4.1v-.2h-.4c-.133-.133-.267-.2-.4-.2s-.333-.067-.6-.2a7.76 7.76 0 0 0-1-.4 7.76 7.76 0 0 1-1-.4l-.2-.2c.133-.133.267-.1.4.1s.2.167.2-.1c.133 0 .133.067 0 .2.133 0 .2-.067.2-.2v.2c.133.133.4.2.8.2-.133-.133-.333-.2-.6-.2-.133-.133-.133-.167 0-.1s.2.033.2-.1a.888.888 0 0 1-.4-.1.888.888 0 0 0-.4-.1c.133-.133.267-.133.4 0s.267.2.4.2V38c0-.133.067-.133.2 0l-.4-.4c-.267 0-.667-.133-1.2-.4-.267 0-.4-.067-.4-.2.267 0 .667.133 1.2.4-.267-.267-.533-.4-.8-.4-.133-.133-.267-.2-.4-.2s-.333-.067-.6-.2v-.2h-.2c-.133-.133-.2-.133-.2 0-.133-.133-.267-.2-.4-.2 0-.133.067-.133.2 0 .267 0 .467.067.6.2v-.2l.4.2h.4c.133.133.4.2.8.2.133.133.2.133.2 0 0 .133.033.2.1.2s.1-.067.1-.2c0 .133.067.2.2.2 0-.133-.067-.2-.2-.2.267 0 .467.067.6.2h-.2c.267.133.5.233.7.3.2.067.433.167.7.3 0-.133-.067-.2-.2-.2s-.2-.067-.2-.2c-.4 0-.6-.067-.6-.2h-.2c0-.133.033-.167.1-.1s.1.033.1-.1h-.2c0-.133-.133-.2-.4-.2-.133 0-.2-.067-.2-.2 0 .133-.067.133-.2 0l-1.8-.6a22.803 22.803 0 0 0-4-1.2c-1.333-.267-2.6-.533-3.8-.8h.4c.133.133.267.2.4.2s.267.067.4.2h-.4c0-.133-.033-.167-.1-.1s-.1.033-.1-.1c0 .133-.067.2-.2.2 0-.133-.067-.2-.2-.2l-.4-.2h-.4c-.133 0-.2-.067-.2-.2a6.2 6.2 0 0 0-1.5-.2c-.467 0-1.033-.067-1.7-.2h.4c.267.133.467.2.6.2h.8v.2c0 .133-.067.133-.2 0h-.4c-.133-.133-.533-.2-1.2-.2h-.2c-.133 0-.2.067-.2.2h-.4.2l.2.2h-1l-.8-.2c-.133.133-.2.167-.2.1s-.067-.033-.2.1l-.4-.2h-.2l-.2-.2c.267-.267.4-.2.4.2.267-.267.4-.333.4-.2h-2c0 .133.067.167.2.1s.2-.033.2.1H68.3h-2.8l.2.2h4c.133.133.4.2.8.2.133 0 .2-.033.2-.1s.067-.1.2-.1c.133.133.267.2.4.2l.4.2h.2-.2l-.8-.2h-1.2c-.667 0-1.133-.067-1.4-.2h-1.4c-.267.133-.467.167-.6.1-.133-.067-.333-.1-.6-.1h-1 .6c0-.133-.067-.2-.2-.2h-2.6c-.667 0-1.067.067-1.2.2-.133-.133-.267-.2-.4-.2h-.8c-.667 0-1.267.067-1.8.2-.533.133-1.133.2-1.8.2-.4.133-.933.2-1.6.2.133 0 .233-.033.3-.1.067-.067.167-.1.3-.1.133-.133.333-.2.6-.2A503.267 503.267 0 0 0 44 35.7c-3.933.733-7.9 1.233-11.9 1.5-6.133.267-11.333-.333-15.6-1.8-4.267-1.467-7.533-3.467-9.8-6v.2h-.2c-.133 0-.133-.067 0-.2l-.2.2c0-.133.067-.2.2-.2h-.2c-.133 0-.2.067-.2.2-.133.133-.167.133-.1 0s.033-.2-.1-.2c.133 0 .2-.067.2-.2l-.2.2-.2-.2c-.133-.133-.2-.067-.2.2v-.2c0-.133-.033-.2-.1-.2s-.1-.067-.1-.2c0 .133.033.167.1.1s.1-.033.1.1h.2c0-.133-.133-.2-.4-.2v.2c0 .133-.033.133-.1 0s-.1-.133-.1 0h.2v-.2c-.133-.133-.2-.167-.2-.1s-.067.033-.2-.1v.2-.4h-.2c-.133 0-.167-.033-.1-.1s.033-.1-.1-.1l.2-.2c-.133 0-.2.067-.2.2l-.2.2c0-.133-.067-.2-.2-.2V28c0-.133-.067-.2-.2-.2 0-.133.067-.2.2-.2 0-.133-.067-.267-.2-.4h-.2V27c0-.133-.067-.133-.2 0l-.2-.2c.133-.133.133-.167 0-.1s-.133.033 0-.1v-.2c-.133.133-.267.067-.4-.2h.2-.2v-.4c0 .133-.067.2-.2.2l.2-.2c-.133 0-.2-.033-.2-.1s-.067-.1-.2-.1v-.4c0-.133-.067-.2-.2-.2v-.4l-.2-.2c-.267-.4-.5-.8-.7-1.2-.2-.4-.367-.867-.5-1.4l-.2-.4v-.6c-.267-.533-.4-.933-.4-1.2-.267-.933-.333-1.667-.2-2.2a1.363 1.363 0 0 1-.1-.9c.067-.333.1-.633.1-.9v-.8h.2V14c0-.133.067-.2.2-.2V13.2h.2v-.4c.133-.133.2-.233.2-.3 0-.067.067-.167.2-.3 0-.133.033-.233.1-.3.067-.067.1-.167.1-.3.133 0 .2-.067.2-.2.267-.533.6-1 1-1.4.4-.4.733-.867 1-1.4l.6-.6.6-.6.4-.4h.2c0-.267.133-.4.4-.4 0-.133.033-.167.1-.1s.1.033.1-.1v-.2c.533-.4 1.133-.933 1.8-1.6l.2.2v-.2l.2-.2.4-.2c0-.267.133-.4.4-.4v-.2c.133 0 .233-.033.3-.1.067-.067.167-.1.3-.1v-.2c.4 0 .733-.133 1-.4l.2-.2c.133 0 .233-.033.3-.1.067-.067.167-.1.3-.1.133-.133.233-.2.3-.2.067 0 .167-.067.3-.2h.2c.133-.133.3-.233.5-.3.2-.067.367-.167.5-.3h.8c-.133.133-.333.2-.6.2a1.743 1.743 0 0 1-.9.5c-.333.067-.7.233-1.1.5 0 .133-.067.2-.2.2l-.4.4c.133 0 .233-.033.3-.1.067-.067.167-.1.3-.1-.133 0-.133.067 0 .2-.533.267-.867.533-1 .8 0 .133.067.133.2 0s.233-.2.3-.2c.067 0 .167-.067.3-.2l.4-.2c.267-.267.567-.433.9-.5.333-.067.7-.233 1.1-.5h.2l.4-.2h.2v.2h-.4l-.2.2v.2h-.4l.2.2h-.2c-.267 0-.4.133-.4.4-.4 0-.667.067-.8.2l-.2.2V4c-.133 0-.2-.067-.2-.2-.533.267-.733.4-.6.4-.133.133-.233.2-.3.2-.067 0-.167.067-.3.2h.2c.267-.133.467-.267.6-.4.133-.133.267-.2.4-.2 0 .133-.033.2-.1.2s-.1.067-.1.2c-.133 0-.4.2-.8.6h-.2l-.2.2-.2.2c-.133.133-.233.2-.3.2-.067 0-.167.067-.3.2h-.2c0 .133-.033.233-.1.3-.067.067-.1.167-.1.3l-.4.4.2-.2.6-.6c.533-.267 1-.6 1.4-1h.2c.133.133.1.2-.1.2s-.233.133-.1.4l-.2-.2.2.2h-.2c-.133 0-.233.033-.3.1-.067.067-.167.1-.3.1.267 0 .467-.067.6-.2v.2c.267 0 .4-.133.4-.4.133.267.1.4-.1.4s-.3.067-.3.2c.133.133.2.133.2 0v.2h.4l.6-.6h.2c0-.267.067-.267.2 0-.133.133-.233.2-.3.2-.067 0-.167.067-.3.2l.4-.2c.267 0 .4-.067.4-.2s.133-.2.4-.2h.2c.133 0 .167-.033.1-.1s-.033-.1.1-.1h.2-.2c0 .4-.133.467-.4.2l.2.2-.2.2 2.4-1.2c.533-.267 1.333-.533 2.4-.8h.4c0-.133.067-.2.2-.2H20.7c.533 0 .933.067 1.2.2h.4c0-.133-.067-.2-.2-.2h-.2.6c.133 0 .2.033.2.1s.067.1.2.1.2.033.2.1.067.1.2.1h.4l.2.2c.133 0 .133.067 0 .2h.2c.133.133.267.233.4.3.133.067.267.167.4.3 0-.133-.067-.2-.2-.2l-.2-.2c-.133 0-.2-.067-.2-.2.133.133.233.2.3.2.067 0 .167.067.3.2l.4.2.6.6c.133.133.267.2.4.2 0-.133-.033-.167-.1-.1s-.1.033-.1-.1v-.2c-.267-.267-.5-.433-.7-.5-.2-.067-.433-.233-.7-.5h-.2c0-.133-.133-.2-.4-.2-.267-.267-.5-.4-.7-.4-.2 0-.433-.067-.7-.2-.133-.133-.2-.133-.2 0l-.4-.4h-.4.2c.267 0 .467.067.6.2h.2c.133 0 .233.033.3.1.067.067.167.1.3.1h.2c.4.267.767.5 1.1.7.333.2.633.433.9.7.533.133.933.533 1.2 1.2l-.4-.4c0 .133.067.2.2.2v.2c.133 0 .2.067.2.2.8.8 1.467 1.733 2 2.8.533 1.067.867 2.2 1 3.4 0 .133.033.233.1.3.067.067.1.167.1.3h-.2c.133 1.6-.067 3.267-.6 5v.2c-.133.267-.333.8-.6 1.6v.2c-.133.267-.2.433-.2.5s-.067.233-.2.5v-.6c0 .133-.067.2-.2.2v.2a1.567 1.567 0 0 0-.3.4c-.067.133-.233.267-.5.4 0 .267-.067.4-.2.4v.4c-.133 0-.2.133-.2.4-.133 0-.2.133-.2.4-.133.133-.333.267-.6.4 0 .133-.033.2-.1.2s-.1.067-.1.2c-.133 0-.267.067-.4.2l-.2.2v-.2c-.133.133-.267.2-.4.2v.2H23.5c-.8.533-1.333.867-1.6 1-.267.133-.467.2-.6.2-1.2.133-2-.267-2.4-1.2-.4-.933-.6-1.933-.6-3 0-1.333.133-2.867.4-4.6-2.4 3.733-3.133 6.767-2.2 9.1.933 2.333 2.933 4.033 6 5.1.8 0 1.333.067 1.6.2h.4c.4.267.6.333.6.2.267-.133.667-.2 1.2-.2.4.267.833.367 1.3.3.467-.067.9-.033 1.3.1h3.2-.2c.4-.133.867-.2 1.4-.2.667 0 1.133-.067 1.4-.2h1.2c.267-.133.6-.2 1-.2h.2c.133-.133.333-.2.6-.2h.4c.133-.133.267-.2.4-.2s.267-.067.4-.2c.4 0 .667-.067.8-.2.267 0 .433-.033.5-.1s.233-.1.5-.1c.133-.133.267-.2.4-.2h.2c.267-.133.567-.267.9-.4.333-.133.633-.267.9-.4l.8-.4c.267-.267.533-.4.8-.4.267-.133.433-.233.5-.3.067-.067.233-.167.5-.3.267 0 .667-.133 1.2-.4l1.2-.6c.267-.267.567-.433.9-.5.333-.067.633-.233.9-.5.267 0 .6-.2 1-.6.267-.133.533-.233.8-.3.267-.067.533-.233.8-.5.533-.133 1.067-.4 1.6-.8h.2c.533-.267.933-.533 1.2-.8l1.2-.6h.2l1.2-.6.6-.2.2-.2c.133 0 .267-.067.4-.2.133 0 .233-.033.3-.1.067-.067.167-.1.3-.1.133 0 .233-.033.3-.1.067-.067.167-.1.3-.1.533-.267.933-.4 1.2-.4 1.333-.533 2.267-.867 2.8-1l.2-.2h.2c.133 0 .267-.067.4-.2.267 0 .6-.067 1-.2s.733-.2 1-.2c.8-.4 1.733-.733 2.8-1 .533-.133 1.1-.267 1.7-.4.6-.133 1.167-.267 1.7-.4.4-.133.733-.2 1-.2s.533-.067.8-.2l1.2-.2V16c.533-.133 1-.2 1.4-.2.4 0 .8-.067 1.2-.2l.2-.2c.4 0 .867-.067 1.4-.2.533-.133 1-.2 1.4-.2a.888.888 0 0 0 .4-.1.888.888 0 0 1 .4-.1c.267-.133.667-.2 1.2-.2.267 0 .467-.033.6-.1.133-.067.333-.1.6-.1H85.9c.133 0 .2-.033.2-.1s.067-.1.2-.1a20.69 20.69 0 0 1 2-.3c.667-.067 1.333-.1 2-.1h.6c.133-.133.467-.2 1-.2h1.8c.8 0 1.667.033 2.6.1s1.8.167 2.6.3h.6c.133 0 .267.033.4.1s.267.1.4.1c.4 0 .667.067.8.2.667 0 1.2.067 1.6.2h.6c.267.133.533.2.8.2.267.133.5.2.7.2.2 0 .433.067.7.2.267 0 .533.067.8.2.133 0 .267.033.4.1s.267.1.4.1c1.333.533 2.267.867 2.8 1 .267 0 .533.133.8.4.267 0 .433.033.5.1s.167.1.3.1l.2.2c.667.267 1.267.533 1.8.8.533.267 1.067.6 1.6 1zM84.3 36.6c0 .133.067.2.2.2h.2l-.4-.2zm2.8 2.4c0-.133.033-.167.1-.1s.1.033.1-.1c-.267 0-.467-.067-.6-.2l.4.4zm0 2c-.133.133-.1.233.1.3.2.067.3.033.3-.1-.133-.133-.267-.2-.4-.2zM66.3 23.6l-.2-.2c0 .133-.067.2-.2.2h.4zm-2.6.8c.267-.133.6-.233 1-.3.4-.067.733-.167 1-.3a3.55 3.55 0 0 0-1.6.4h-.2l-.2.2zm-3.2 1.4c.133 0 .233-.033.3-.1.067-.067.167-.1.3-.1-.267 0-.433.033-.5.1s-.167.1-.3.1c-.133.133-.2.167-.2.1s-.067-.033-.2.1c-.533.267-.867.467-1 .6.267-.267.533-.4.8-.4.133-.133.333-.2.6-.2 0-.133.067-.2.2-.2zM44.3 31c-.133.133-.267.2-.4.2h.4V31zm42.8-14c-.267.133-.733.2-1.4.2v.2c.267-.133.5-.2.7-.2.2 0 .433-.067.7-.2zm-2.2-.8c0 .133.133.2.4.2.267-.267.4-.333.4-.2h-.8zm.2.2c0 .133-.1.167-.3.1-.2-.067-.233-.033-.1.1h.4l.2-.2h-.2zm-3.2.2h-.2.4c.267 0 .4-.067.4-.2-.133.133-.2.167-.2.1s-.067-.033-.2.1h-.2zM40.7 31h.2c-.133 0-.233.033-.3.1-.067.067-.167.1-.3.1h.2c.133 0 .2-.067.2-.2zm-1.4 1a19.893 19.893 0 0 1 2.1-.3 10.21 10.21 0 0 0 2.3-.5l.4-.2h-.6c-.133.133-.233.2-.3.2-.067 0-.167.067-.3.2-.133-.133-.067-.2.2-.2 0-.133.067-.2.2-.2s.2-.033.2-.1.067-.1.2-.1c.133-.133.233-.2.3-.2.067 0 .167-.067.3-.2V30l1.2-.6h.2c.133.133.133.2 0 .2s-.2.067-.2.2h.2c.133 0 .2-.033.2-.1s.067-.1.2-.1l.8-.4c.267-.133.5-.233.7-.3.2-.067.433-.167.7-.3.533-.267.933-.533 1.2-.8.133 0 .067.133-.2.4-.133 0-.2.067-.2.2-.133 0-.233.033-.3.1-.067.067-.167.1-.3.1-.533.267-1.033.5-1.5.7-.467.2-.967.433-1.5.7.4 0 .667-.067.8-.2 0-.133.067-.133.2 0l-.4.2.2.2c-.4 0-.467.133-.2.4.267-.133.567-.267.9-.4.333-.133.633-.333.9-.6l1.2-.4a7.76 7.76 0 0 0 1-.4l.4-.4h.2c.267 0 .467-.067.6-.2l.2-.2h.2c.133-.133.233-.2.3-.2.067 0 .167-.067.3-.2.267 0 .4-.133.4-.4.133 0 .233-.067.3-.2.067-.133.167-.2.3-.2v.2c0 .133.033.133.1 0s.1-.067.1.2c.133-.133.267-.233.4-.3.133-.067.267-.167.4-.3H54.9h-.2c-.133-.133-.067-.333.2-.6l.4.4h.2c.267-.267.5-.467.7-.6.2-.133.433-.267.7-.4.133 0 .2-.067.2-.2.133 0 .2-.033.2-.1s.067-.1.2-.1c.267-.133.4-.233.4-.3 0-.067.133-.1.4-.1 0 .133-.067.2-.2.2h.6c-.133.133-.233.2-.3.2-.067 0-.167.067-.3.2h.2c-.533.4-1.267.733-2.2 1h-.2c-.4.4-.6.533-.6.4 0 .133-.067.2-.2.2h-.4.2c0 .133-.133.2-.4.2l-2.4 1.2c.133 0 .233-.033.3-.1.067-.067.167-.1.3-.1 0 .267-.267.4-.8.4-.4.267-1.133.667-2.2 1.2h-.4l.8-.4c0-.133.133-.2.4-.2 0-.133.067-.2.2-.2h-.4l-.2.2-.8.4h-.4l-1.2.6c-.533.267-1 .467-1.4.6.4 0 .867-.133 1.4-.4.267 0 .533-.133.8-.4 0 .133.067.2.2.2a11.402 11.402 0 0 1 2-.6 11.402 11.402 0 0 0 2-.6l.8-.4h-.2c.133-.133.333-.2.6-.2h.4l.4-.4c.4-.267.833-.467 1.3-.6.467-.133.9-.333 1.3-.6.533-.267.867-.4 1-.4s.2-.067.2-.2c.267 0 .367-.033.3-.1s-.033-.1.1-.1c.667-.133 1.267-.3 1.8-.5a89.75 89.75 0 0 0 1.8-.7c0-.133-.133-.2-.4-.2h.2l-.4-.4c.133 0 .2-.033.2-.1s-.067-.1-.2-.1c.267-.267.4-.267.4 0 .133-.133.133-.167 0-.1s-.2.033-.2-.1c.267-.267.4-.333.4-.2.267 0 .4.067.4.2l-.2-.2c-.133 0-.2.067-.2.2l-.2.2h.2l.4-.2c0 .133-.067.2-.2.2s-.2.067-.2.2l.2.2a.888.888 0 0 0 .4-.1c.133-.067.333-.1.6-.1h-.2c-.133 0-.2.067-.2.2.267 0 .467-.033.6-.1.133-.067.333-.1.6-.1.533-.267.867-.4 1-.4l.2-.2h.2c.133 0 .267-.067.4-.2v.2a7.817 7.817 0 0 1 1.6-.6 7.817 7.817 0 0 0 1.6-.6c-.267.133-.5.2-.7.2-.2 0-.367.067-.5.2h-.4c.133-.133.467-.2 1-.2l.4-.2c.267-.133.6-.2 1-.2 4.933-1.867 9.4-3.267 13.4-4.2h-.4c-.267.133-.433.167-.5.1s-.233-.033-.5.1c.133-.133.3-.2.5-.2s.367-.067.5-.2c.4 0 .733-.067 1-.2.267.133.4.167.4.1s.133-.1.4-.1h-.4c0-.133-.033-.167-.1-.1s-.1.033-.1-.1c-.267 0-.4.033-.4.1s-.067.1-.2.1h-.2c-.267 0-.5.033-.7.1-.2.067-.433.033-.7-.1-.133.133-.467.2-1 .2h-.2c.267 0 .567-.067.9-.2.333-.133.7-.267 1.1-.4l1-.2c.267 0 .4-.067.4-.2s-.067-.133-.2 0-.267.133-.4 0c-.133.133-.4.2-.8.2h-.2c-.133 0-.267.067-.4.2-.267 0-.533.033-.8.1s-.6.1-1 .1h.2c.133 0 .267-.067.4-.2a.888.888 0 0 0 .4-.1.888.888 0 0 1 .4-.1h-.6c0-.133.033-.167.1-.1s.1.033.1-.1c-.533.133-1.033.233-1.5.3-.467.067-1.033.167-1.7.3h-.2c-.4.133-.867.233-1.4.3-.533.067-1.067.167-1.6.3h-.2c-.267.133-.667.2-1.2.2h.4c0 .133-.133.067-.4-.2l-.8.2c0-.267.167-.367.5-.3.333.067.567.033.7-.1-.267-.133-.733-.067-1.4.2l-2 .4c-.667.133-1.333.333-2 .6h-.2l-.6.2c-.667.267-1.3.467-1.9.6-.6.133-1.167.333-1.7.6-.133 0-.267.067-.4.2 0-.133-.033-.167-.1-.1s-.1.033-.1-.1c-.133 0-.167.033-.1.1s.033.1-.1.1a.888.888 0 0 0-.4.1.888.888 0 0 1-.4.1h-.2c-.267.133-.433.2-.5.2s-.233.067-.5.2c-.533.267-.933.4-1.2.4h-.2c-.267.267-.533.4-.8.4-.133 0-.2.033-.2.1s-.067.1-.2.1l-.2.2h-.2c-.133 0-.2.067-.2.2-.4 0-.733.133-1 .4-.533.4-1.067.667-1.6.8-.4.267-1 .533-1.8.8v.2c-.133.133-.333.267-.6.4-.267.133-.467.267-.6.4-.133 0-.2-.067-.2-.2-.133.133-.233.2-.3.2-.067 0-.167.067-.3.2l-.2.2h-.4c-.133 0-.2.033-.2.1s.067.1.2.1c-.133 0-.233.033-.3.1-.067.067-.167.1-.3.1-.267.267-.5.433-.7.5-.2.067-.433.167-.7.3l-.2.2h-.2.2l.4-.4c0-.133-.033-.133-.1 0s-.167.133-.3 0c-.133.133-.233.2-.3.2-.067 0-.167.067-.3.2 0 .133.033.167.1.1s.1-.033.1.1h-.2l-.8.4-.2-.2-.4.4c-.267 0-.533.067-.8.2l-.8.4-.8.4v.4l.8-.4h.4c0 .133-.067.2-.2.2s-.467.133-1 .4v-.2c-.533.267-.933.4-1.2.4 0 .133-.067.2-.2.2l-.4.2c-.133 0-.2.067-.2.2-.133 0-.233.033-.3.1-.067.067-.233.1-.5.1l-.2.2c-.133 0-.133-.067 0-.2h.4l.4-.2v-.2l.6-.2c.133-.133.267-.2.4-.2.133-.133.233-.2.3-.2.067 0 .167-.067.3-.2.267 0 .4-.067.4-.2-.133.133-.267.2-.4.2s-.2.033-.2.1-.067.1-.2.1h-.2c-.133.133-.233.2-.3.2-.067 0-.167.067-.3.2-.533.267-1 .467-1.4.6l-.4.2c-.133 0-.267.067-.4.2h.4c-.133 0-.267.067-.4.2a.888.888 0 0 0 .4-.1.888.888 0 0 1 .4-.1c-.267.267-.433.367-.5.3s-.233-.033-.5.1v.2c-.133-.133-.233-.133-.3 0-.067.133-.1.133-.1 0l-.2.2c-.133.133-.233.167-.3.1-.067-.067-.167-.033-.3.1v-.2c0 .133-.033.2-.1.2s-.1-.067-.1-.2v.2zm11.4-3.4h.6l.4-.4c.133 0-.2.133-1 .4zm-14.2 3.6c0 .133-.067.2-.2.2h.2v-.2zm-9.2.2c2.533.4 5.533.4 9 0h-1.2c-.133 0-.267.067-.4.2H29.9c-.267 0-.467-.067-.6-.2h-2zM23.5 4.2c.133.133.267.2.4.2-.133 0-.2-.033-.2-.1s-.067-.1-.2-.1zM12.7 5.8c-.267-.267-.4-.2-.4.2.133-.133.267-.2.4-.2zm-3 .4c.267 0 .4-.067.4-.2-.133 0-.2.033-.2.1s-.067.1-.2.1zM8.1 5c0-.133-.067-.167-.2-.1s-.133.167 0 .3l.2-.2zm67.4 28.4c0 .133.067.2.2.2l-.2-.2zM86.9 37l-.4-.2h.2l.8.4c-.133 0-.233-.033-.3-.1-.067-.067-.167-.1-.3-.1zm2.8 1c-.133 0-.267-.067-.4-.2h-.2c0 .133.133.2.4.2h.2zM75.5 74c5.6 1.733 9.333 4.2 11.2 7.4 1.867 3.2 1.933 6.067.2 8.6-.8 1.333-1.933 2.267-3.4 2.8-1.467.533-3.033.667-4.7.4-1.667-.267-3.4-.967-5.2-2.1-1.8-1.133-3.433-2.7-4.9-4.7-1.467-2-3.1-3.667-4.9-5-1.8-1.333-3.533-2.4-5.2-3.2-1.667-.8-3.2-1.4-4.6-1.8-1.4-.4-2.5-.667-3.3-.8a57.164 57.164 0 0 1 8.2-2.2c2.4-.4 5.067-.633 8-.7 2.933-.067 5.8.367 8.6 1.3zm7.8 89c-.4.667-.767.667-1.1 0-.333-.667-.167-.933.5-.8.133.267.333.533.6.8zm-33.2-1.2c.267 0 .467.067.6.2-.267.267-.467.2-.6-.2zm22.8 3c0-.267.067-.467.2-.6l.4.4c-.133.133-.2.267-.2.4s-.133.067-.4-.2zm-7.8 2.4c.133-.267.4-.2.8.2l-.4.4c-.133-.133-.2-.233-.2-.3 0-.067-.067-.167-.2-.3zm3.6-2c.133.133.2.233.2.3 0 .067.067.167.2.3l-.2.2-.4-.4.2-.4zm-28.8-2.4c-.133-.133-.2-.233-.2-.3 0-.067-.067-.167-.2-.3l.2-.2c.133.133.2.233.2.3 0 .067.067.167.2.3l-.2.2zm.2 0c.133.133.2.233.2.3 0 .067.067.167.2.3l-.2.2c0-.133-.067-.2-.2-.2-.267-.133-.267-.333 0-.6zm29.6-147c-.533 0-.933-.333-1.2-1-.267-.667-.067-.867.6-.6.667.8.867 1.333.6 1.6zm-8.8 148.8c.533-.267.8-.067.8.6-.267.267-.533.067-.8-.6zm8-148.6c-.133.4-.4.4-.8 0l.2-.4.6.4zM58.7 167.2l.6.2c-.133.267-.267.333-.4.2s-.2-.267-.2-.4zm3-152.6c-.4.133-.733.067-1-.2 0-.267.133-.4.4-.4.267.133.4.233.4.3 0 .067.067.167.2.3zm-2.2-.4l-.4-.4.4-.4.4.4-.4.4zm-3.8 154h.6c.133.133.067.333-.2.6-.133-.133-.2-.233-.2-.3 0-.067-.067-.167-.2-.3zm-6.6-4.6c-.267.4-.667.633-1.2.7-.533.067-1.067-.033-1.6-.3.533-1.067 1.467-1.2 2.8-.4zM54.5 14c-.4-.133-.6-.4-.6-.8.133-.267.467-.133 1 .4l-.4.4zm-6 152.4c.4-.267.767-.433 1.1-.5.333-.067.833.1 1.5.5.133.667-.233 1-1.1 1-.867 0-1.367-.333-1.5-1zm3.4 2.4c.133-.4.4-.4.8 0 0 .533-.267.533-.8 0zm-3.6-2.6c-.133-.133-.2-.233-.2-.3 0-.067-.067-.167-.2-.3.267-.267.467-.267.6 0 .133.267.067.467-.2.6zm4.4-151c-.4-.133-.667-.4-.8-.8h.6l.4-.4.4.6c.133.133 0 .333-.4.6l-.2-.2v.2zm-4.6 152.4c.133-.267.3-.3.5-.1.2.2.3.433.3.7-.133 0-.233.067-.3.2-.067.133-.233.133-.5 0-.267-.267-.233-.4.1-.4s.3-.133-.1-.4zm-1.4-.6c.4.4.467.667.2.8-.267 0-.333-.033-.2-.1s.067-.167-.2-.3l.2-.4zm-5-4.6c-.267.133-.367.267-.3.4s-.033.267-.3.4c-.133-.267-.167-.467-.1-.6.067-.133-.1-.333-.5-.6l.4-.4.8.8zm.2 1.2c.133-.267.4-.267.8 0-.133.267-.333.4-.6.4 0-.267-.067-.4-.2-.4zm7.6-148c-.4-.267-.467-.533-.2-.8.4.4.467.667.2.8zm3.4 5c.267-.267.567-.333.9-.2.333.133.633.333.9.6-.267.267-.567.333-.9.2a2.664 2.664 0 0 1-.9-.6zM42.1 166.4c-.133-.133-.2-.233-.2-.3 0-.067-.067-.167-.2-.3l.2-.4c.667.4.733.733.2 1zM53.3 22.6c.267-.4.633-.533 1.1-.4.467.133.9.333 1.3.6-.4.533-1.2.467-2.4-.2zm-5-5.4c-.267-.133-.533-.4-.8-.8s-.2-.667.2-.8c.4.133.7.367.9.7.2.333.1.633-.3.9zM46.1 14c-.133.4-.333.333-.6-.2.267 0 .467.067.6.2zm-3.2 153.6c.267.133.467.167.6.1.133-.067.333.033.6.3-.133.267-.267.367-.4.3s-.267.033-.4.3c-.267-.267-.367-.433-.3-.5s.033-.233-.1-.5zm-2.6-2.2c-.667.133-.867 0-.6-.4s.467-.267.6.4zm1.8 2l.4.4-.2.2-.4-.4.2-.2zm4-151.6l.4.4-.4.4-.4-.4.4-.4zm4.8 4.8c0 .533-.233.8-.7.8-.467 0-.833-.267-1.1-.8.533-.667 1.133-.667 1.8 0zM37.7 164.8c-.133.4-.367.433-.7.1-.333-.333-.567-.633-.7-.9.267-.133.733.133 1.4.8zm-.2.8c.267.267.433.467.5.6.067.133.233.333.5.6-.133.267-.3.333-.5.2s-.367-.2-.5-.2c-.267-.267-.4-.533-.4-.8s.133-.4.4-.4zm1.2 1.2c.133.267.167.4.1.4s-.1.067-.1.2c-.133-.133-.2-.267-.2-.4l.2-.2zm3.6-151.6c-.133.267-.467.267-1 0 0-.267.133-.467.4-.6.267.133.367.2.3.2s.033.133.3.4zm-5.2 152.6c-.267-.133-.4-.267-.4-.4s-.133-.333-.4-.6c.267 0 .6.2 1 .6l-.2.4zM33.7 14.4c0-.267.167-.233.5.1.333.333.367.5.1.5l-.6-.6zm10.8 4.8c-.267.533-.8.4-1.6-.4.533-.533 1.067-.4 1.6.4zm5 5.8c.133-.267.467-.133 1 .4-.133.267-.333.333-.6.2-.267-.133-.4-.333-.4-.6zm-6-1.8c-.533-.4-.6-.8-.2-1.2.533.4.6.8.2 1.2zm-7-7l-.4-.4.4-.4.4.6c0 .133-.133.2-.4.2zm4.8 4.6l-.2-.2.2-.2.4.2-.4.2zm-1.8-1.6c-.533.533-1.2.567-2 .1-.8-.467-1.333-1.033-1.6-1.7h1.7c.6 0 1.233.4 1.9 1.2-.133.133-.133.267 0 .4zM37.3 25c.267-.533.567-.667.9-.4.333.267.633.6.9 1l-.4.4c-.667-.267-1.133-.6-1.4-1zm-6.2-11.6c.133-.133.4-.067.8.2-.133.4-.4.4-.8 0v-.2zm3.6 3.2c.667.4.767.667.3.8s-.767-.067-.9-.6c.133-.133.233-.167.3-.1.067.067.167.033.3-.1zm4.4 5.4c-.4 0-.6-.267-.6-.8l.2-.2c.533.533.667.867.4 1zm-3.4-3.2l-.2-.2.2-.2.2.2-.2.2zm6 5.8c.267.133.4.333.4.6-.133.133-.333.067-.6-.2l.2-.4zm-6-5.4h.4c0 .133.067.267.2.4h-.4l-.2-.4zm3.8 3.4c0 .533-.067.8-.2.8-.4 0-.6-.2-.6-.6.133-.133.233-.167.3-.1.067.067.233.033.5-.1zm-3.4-2c0 .267-.133.367-.4.3s-.4-.233-.4-.5c.133 0 .233-.033.3-.1.067-.067.233.033.5.3zm-6-3.4c.267-.4.267-.8 0-1.2-.267-.4-.267-.8 0-1.2.267.4.567.733.9 1 .333.267.633.6.9 1 .133.133.267.167.4.1s.133.033 0 .3c-.267-.267-.367-.233-.3.1s-.1.5-.5.5c-.533-.267-1-.467-1.4-.6zm4.6 3.8c-.533-.4-.833-.8-.9-1.2a3.08 3.08 0 0 0-.5-1.2c.4.133.767.5 1.1 1.1.333.6.433 1.033.3 1.3zm.4 2.4c-.4 0-.867-.167-1.4-.5-.533-.333-.867-.7-1-1.1.267-.667.767-.7 1.5-.1s1.033 1.167.9 1.7zm0 1c-.4.4-.867.267-1.4-.4.267-.4.533-.5.8-.3s.467.433.6.7zm-4.4-2.6c-.667-.267-1.1-.667-1.3-1.2-.2-.533.033-.8.7-.8.933.267 1.533.867 1.8 1.8-.133.133-.533.2-1.2.2zm3.6 2.8c.133.133.167.267.1.4s-.233.133-.5 0c-.267-.267-.133-.4.4-.4zm-1.2-.4c-.267.267-.467.2-.6-.2-.133 0-.067-.133.2-.4.133.133.167.233.1.3-.067.067.033.167.3.3zm-1.4-.8c-.133-.133-.167-.2-.1-.2s.033-.067-.1-.2l.2-.2.4.4-.4.2zm2 3l.4-.4.2.2-.4.4-.2-.2zM20.1 93c-.133.133-.2.3-.2.5s-.067.3-.2.3c.133-.4.2-1 .2-1.8 0-.133.067-.267.2-.4v-.4c0-.267.033-.433.1-.5s.1-.233.1-.5v.8l-.2.4V93zm1.6-11.6c-.133 0-.167.067-.1.2s.033.133-.1 0c.133-.4.233-.767.3-1.1.067-.333.167-.767.3-1.3l.2.2c-.133.133-.2.233-.2.3 0 .067-.067.167-.2.3 0 .4-.067.733-.2 1v.4zm-4.2 26.2v-.4.8-.4zm-.2 2.2v-.8.8zm-.2 1v.8-.8zm3.2-24l-.2.2v1c-.133.267-.2.667-.2 1.2-.133-.267-.167-.467-.1-.6.067-.133.1-.333.1-.6.133-.267.2-.5.2-.7 0-.2.067-.433.2-.7v.2zm-2.8 16.4c.267.4.2.8-.2 1.2 0-.133.033-.3.1-.5s.1-.433.1-.7zm1.2-6.8l.2-.2c0-.267-.067-.4-.2-.4.133-.133.2-.267.2-.4 0-.267.033-.433.1-.5s.033-.233-.1-.5c.133 0 .2-.133.2-.4v-.4c0-.267.067-.467.2-.6V91.4l.2-.2v-.8l.2-.6-.2 1.8v.4l-.6 4.2c0 .267-.067.4-.2.4v-.2zm2 20c.133 0 .2.1.2.3 0 .2-.067.3-.2.3.133-.133.133-.2 0-.2s-.133-.133 0-.4zm2.2-23.8v.8c0 .133-.067.2-.2.2v-.2c.133 0 .2-.033.2-.1s-.067-.1-.2-.1c0-.133-.033-.167-.1-.1s-.033-.033.1-.3v.1c0-.2.067-.3.2-.3zm.4-2.8a.888.888 0 0 1-.1.4c-.067.133-.1.333-.1.6 0-.533.067-.867.2-1zm-1.6 12c0 .133-.033.233-.1.3-.067.067-.1.033-.1-.1l.2-.4v-.6.8zm7-31.6c-.267.533-.4.867-.4 1-.133.133-.2.467-.2 1 0 .133-.133.333-.4.6.133-.133.133-.2 0-.2 0-.133.133-.6.4-1.4.267-.533.467-.867.6-1zm-1.4 3.6h.2l-.4.8a.888.888 0 0 1-.1.4c-.067.133-.1.333-.1.6 0-.133-.033-.2-.1-.2s-.1.067-.1.2c-.133-.133-.133-.233 0-.3.133-.067.2-.233.2-.5.133-.267.2-.433.2-.5s.067-.233.2-.5zm-4.8 19.8v-.8c0-.4.067-.6.2-.6-.133.133-.133.267 0 .4-.133.133-.2.467-.2 1zm11-33.6c-.133-.133-.133-.233 0-.3.133-.067.2-.167.2-.3 0-.133.067-.2.2-.2 0 .133-.067.267-.2.4s-.2.267-.2.4zm-1 1.6c-.133.267-.267.467-.4.6-.133.133-.2.333-.2.6v-.6c.133-.267.4-.6.8-1 0 .133-.067.267-.2.4zm-1.2 2.2c0 .133-.033.233-.1.3-.067.067-.1.167-.1.3-.133 0-.2.067-.2.2s-.067.133-.2 0c.267-.267.4-.533.4-.8h.2zm-10 35.8c0 .133-.033.333-.1.6-.067.267-.1.467-.1.6v.6c0 .267-.033.5-.1.7-.067.2-.1.433-.1.7-.133 0-.2-.067-.2-.2.133 0 .2-.133.2-.4v-.2c0-.133-.033-.2-.1-.2s-.1-.067-.1-.2c.133 0 .2-.067.2-.2 0-.267.033-.5.1-.7.067-.2.1-.433.1-.7 0-.133.067-.267.2-.4zm12.6-41l.2-.4c0-.133.067-.267.2-.4s.2-.267.2-.4.033-.233.1-.3c.067-.067.1-.167.1-.3.133-.133.267-.333.4-.6.133.133 0 .4-.4.8-.133.533-.467 1.2-1 2l.2-.4zM19.5 104v.2c0 .8-.067 1.4-.2 1.8 0 .267-.033.5-.1.7-.067.2-.1.433-.1.7-.267-.267-.333-.6-.2-1s.2-.733.2-1c.133 0 .133.067 0 .2.133-.267.2-.633.2-1.1 0-.467.067-.833.2-1.1v.6zm.8-13.8c-.267-.267-.2-.6.2-1v-.8c.267-1.067.5-2.1.7-3.1.2-1 .433-2.033.7-3.1.267-.8.4-1.4.4-1.8a40.101 40.101 0 0 1 1.8-4.8c.133-.267.233-.533.3-.8.067-.267.233-.533.5-.8.133-.667.267-1.167.4-1.5.133-.333.333-.767.6-1.3v.2-.2h.2c-.133.133-.2.267-.2.4s-.067.333-.2.6c0 .267-.133.533-.4.8-.133.4-.233.767-.3 1.1-.067.333-.167.7-.3 1.1-.133.133-.2.233-.2.3 0 .067-.067.167-.2.3-.133.4-.233.733-.3 1a3.908 3.908 0 0 1-.3.8c-.133.533-.467 1.333-1 2.4-.133.267-.2.533-.2.8s-.067.533-.2.8v.2c-.133.267-.2.5-.2.7 0 .2-.067.433-.2.7-.133.133-.2.267-.2.4s-.067.267-.2.4a26.228 26.228 0 0 0-.6 3.3c-.133 1.133-.333 2.1-.6 2.9zm1.4-5c.133.133.133.233 0 .3-.133.067-.133.1 0 .1 0 .533-.067.8-.2.8 0-.267.033-.467.1-.6.067-.133.1-.333.1-.6zm-.4 2.4v.8c-.133 0-.167-.067-.1-.2s.033-.2-.1-.2l.2-.4zm-2.4 18.2v-.8c.133.267.167.4.1.4s-.1.133-.1.4zm4.4-14.2c-.133.133-.133.133 0 0s.133-.2 0-.2v-.2c0-.533.067-.867.2-1 0 .133-.033.333-.1.6-.067.267-.1.533-.1.8zm-1.6 8.8c-.133.133-.167.267-.1.4s-.033.267-.3.4c.133 0 .2.067.2.2v.6h-.2l.2.2h-.2c-.133 0-.133.167 0 .5.133.333.067.5-.2.5a3.891 3.891 0 0 0 .1-1.5c-.067-.467.033-1.033.3-1.7.267.267.333.4.2.4zm13.6-43.6l-.4.6h-.2c.267-.267.4-.467.4-.6l.2-.4c.133-.133.2-.267.2-.4s.133-.267.4-.4c0-.133.067-.2.2-.2l.4-.8c.133-.133.2-.233.2-.3 0-.067.067-.167.2-.3 0 .133-.067.267-.2.4v.2l-.4.8c-.133.267-.233.433-.3.5-.067.067-.167.233-.3.5-.133.133-.2.233-.2.3 0 .067-.067.167-.2.3v-.2zm-16 54.6v-.6c.4.4.333.6-.2.6h.2zm8.4-41.8c0-.267.133-.667.4-1.2 0 .267-.033.467-.1.6-.067.133-.1.333-.1.6-.133.267-.2.467-.2.6 0 .133-.067.267-.2.4 0 .133-.133.467-.4 1 0 .133.033.2.1.2s.1.067.1.2c-.267.267-.4.567-.4.9 0 .333-.067.633-.2.9a3.908 3.908 0 0 0-.3.8 3.908 3.908 0 0 1-.3.8c-.133.133-.2.267-.2.4s-.067.267-.2.4c0 .4-.067.667-.2.8 0 .267-.033.433-.1.5s-.1.167-.1.3c-.133.267-.2.433-.2.5s-.067.233-.2.5c0 .133-.033.233-.1.3-.067.067-.1.167-.1.3-.133.533-.333 1.2-.6 2 0 .133-.033.2-.1.2s-.1.067-.1.2v.8c-.267.8-.4 1.4-.4 1.8a3.908 3.908 0 0 0-.3.8 3.908 3.908 0 0 1-.3.8v.8c0 .133-.033.233-.1.3-.067.067-.1.167-.1.3v.8c-.267 1.067-.533 2.533-.8 4.4.133 0 .2-.067.2-.2 0 .933-.067 1.533-.2 1.8v-.4c-.133.267-.2.5-.2.7 0 .2-.067.433-.2.7v1.2c0 .133-.033.233-.1.3-.067.067-.1.167-.1.3v.4h-.2l.2-.2c0-.133-.067-.267-.2-.4.133-.267.2-.633.2-1.1 0-.467.067-.833.2-1.1v-.4l-.2-.2v-.6.2c0 .133-.033.2-.1.2s-.1.133-.1.4c-.267-.267-.2-.6.2-1v-1.4l.2-.8v-1c0-.133.067-.2.2-.2 0-.267.067-.4.2-.4.133.133.133.233 0 .3-.133.067-.2.167-.2.3v.6c.133-.133.2-.467.2-1v-.4c.133-.533.2-1.2.2-2 0 .533-.067.867-.2 1v.4c-.133.133-.167.267-.1.4s.033.133-.1 0c.133-.4.2-.8.2-1.2 0-.4.067-.733.2-1 0-.267.133-.8.4-1.6 0-.267.033-.4.1-.4s.033-.133-.1-.4c-.133 0-.167.067-.1.2s.033.2-.1.2v.4c-.133.267-.2.533-.2.8s-.067.533-.2.8c0 .267-.033.533-.1.8s-.1.533-.1.8c-.133.133-.133.267 0 .4-.133 0-.2.2-.2.6-.133.4-.2.933-.2 1.6-.133.267-.2.533-.2.8V93c-.133.267-.2.533-.2.8l-.2.6v.2-.2l.2-1.2v-1l.2-.4V91.2c0-.267.033-.467.1-.6.067-.133.1-.333.1-.6 0-.267.033-.467.1-.6.067-.133.1-.333.1-.6 0-.4.133-1.133.4-2.2 0-.4.133-1 .4-1.8s.4-1.333.4-1.6a.888.888 0 0 1-.1.4c-.067.133-.1.333-.1.6.133 0 .2-.133.2-.4 0-.133.033-.2.1-.2s.1-.067.1-.2c0-.267.033-.433.1-.5s.1-.233.1-.5c.133-.267.2-.467.2-.6 0-.133.067-.333.2-.6 0-.4.133-.867.4-1.4.267-.8.4-1.333.4-1.6.133-.133.2-.267.2-.4s.067-.267.2-.4l.4-1c.4-.933.733-1.833 1-2.7.267-.867.6-1.833 1-2.9l.6-1.2zM19.9 102c.133.267.167.467.1.6a.888.888 0 0 0-.1.4c0-.133.033-.333.1-.6.067-.267.033-.4-.1-.4zm.4-2.6c0 .533-.033.933-.1 1.2-.067.267-.1.733-.1 1.4-.133-.267-.167-.667-.1-1.2.067-.533.167-1 .3-1.4zm-.8 6c0-.133.033-.233.1-.3.067-.067.1.033.1.3v.4c-.133 0-.2.2-.2.6h-.2.2v-1zm.8-7.8c0 .533-.033 1.033-.1 1.5-.067.467-.1.9-.1 1.3-.133.133-.2.333-.2.6-.133.4-.167.767-.1 1.1.067.333.033.7-.1 1.1-.133 0-.267.2-.4.6v-.6c0-.133.067-.267.2-.4v-.6.2-.8c0-.133.067-.2.2-.2 0-.133-.033-.2-.1-.2s-.1-.067-.1-.2c.133 0 .167.033.1.1s-.033.1.1.1c0-.8.067-1.4.2-1.8l-.2-.2h.2v-1.6.6h.2c0 .267-.033.533-.1.8s-.1.533-.1.8l.2-.2V99l.2-.8v-1l.2-.4v.2l-.2.6zm-1.8 8v-1c0-.267.033-.533.1-.8s.1-.533.1-.8.033-.533.1-.8.1-.533.1-.8v.8c.133-.267.2-.533.2-.8v-.6c-.133 0-.167.067-.1.2s.033.267-.1.4v-.6h-.2c.133-.533.233-1.233.3-2.1.067-.867.233-1.633.5-2.3v-1.2c0-.533.067-.733.2-.6 0 .4-.033.867-.1 1.4a25.24 25.24 0 0 1-.3 1.8c0 .267-.033.567-.1.9-.067.333-.1.633-.1.9-.133 0-.067-.133.2-.4V98.6c0-.267.033-.467.1-.6.067-.133.1-.333.1-.6v1c-.133.267-.2.733-.2 1.4.133 0 .167-.033.1-.1s-.033-.1.1-.1v-.4c.133-.533.2-.967.2-1.3 0-.333.067-.767.2-1.3 0-.133-.067-.267-.2-.4.133-.133.133-.2 0-.2.133-.267.2-.567.2-.9 0-.333.067-.633.2-.9v-.8c0-.4.067-.667.2-.8v-1c0-.267.033-.533.1-.8s.1-.533.1-.8c.267 0 .4-.333.4-1 .133.267.167.5.1.7-.067.2-.1.433-.1.7v.6c.133.133.133.167 0 .1s-.2-.033-.2.1.033.167.1.1.1-.033.1.1v.4l-.2.2v.8c0 .533-.067.933-.2 1.2 0-.267.033-.5.1-.7.067-.2.1-.433.1-.7-.133 0-.167.067-.1.2s.033.267-.1.4v.4c-.133.267-.2.6-.2 1v1c-.133.4-.2.733-.2 1h-.2c.133.133.133.267 0 .4V97.6a31.894 31.894 0 0 0-.3 1.7 31.894 31.894 0 0 1-.3 1.7c0 .133.067.267.2.4-.133.267-.2.667-.2 1.2 0 .267-.033.4-.1.4s-.1.067-.1.2c0 .267-.033.467-.1.6-.067.133-.033.333.1.6h-.2c-.133.267-.167.5-.1.7.067.2.033.433-.1.7v-.6c-.133 0-.2.067-.2.2v.2zm1.8-11.8c0 .133-.033.233-.1.3-.067.067-.1.233-.1.5.133 0 .2-.2.2-.6v-.4h.2c-.133 0-.2.067-.2.2zm-2.6 10.8c0-.133.033-.3.1-.5s.1-.367.1-.5v-.6c0-.267.033-.5.1-.7.067-.2.1-.367.1-.5v-1.4c.133-.267.2-.6.2-1 .133.267.167.567.1.9-.067.333-.1.633-.1.9v1.2a3.55 3.55 0 0 0-.4 1.6v1c-.133 0-.133.067 0 .2-.133.133-.167.133-.1 0s.033-.2-.1-.2v-.4zM71.3 35c-.267 0-.467-.033-.6-.1-.133-.067-.333-.1-.6-.1h-1c.267-.133.433-.167.5-.1s.233.033.5-.1c.133 0 .233.033.3.1.067.067.167.1.3.1.4 0 .6.067.6.2zm-7.4.2h-1.4 1.4zm15 2.6h.4-.4zm1.4.4c0 .133-.067.167-.2.1s-.2-.167-.2-.3c.133 0 .267.067.4.2zm.6.2c.133 0 .233.033.3.1.067.067.167.1.3.1-.133.133-.333.067-.6-.2zm-12.4-3.2c-.133.133-.4.2-.8.2a.888.888 0 0 1-.4-.1.888.888 0 0 0-.4-.1h1.6zm8.2 2c.133 0 .267.067.4.2-.133 0-.233-.033-.3-.1-.067-.067-.167-.1-.3-.1h.2zm-7.8-2c.267.133.6.2 1 .2h.2c.533 0 .933.067 1.2.2.667 0 1.133.067 1.4.2h.2v.2c0-.133-.133-.2-.4-.2h-.4c-.133-.133-.333-.133-.6 0 0-.133-.067-.2-.2-.2h-.2c-.133 0-.267-.067-.4-.2l-.2.2c-.267 0-.467-.033-.6-.1-.133-.067-.333-.1-.6-.1h-.4v-.2zm8.2.2h.6c.133 0 .467.133 1 .4.267.267.467.4.6.4-.133.133-.3.133-.5 0a3.277 3.277 0 0 1-.5-.4h.2c-.267-.133-.5-.2-.7-.2-.2 0-.433-.067-.7-.2zm-12.4-1c.267 0 .467.067.6.2h3.8c-.133.133-.233.167-.3.1-.067-.067-.167-.033-.3.1h-.6a9.27 9.27 0 0 0-1.8-.2h-7.2c-.4.133-1 .2-1.8.2h.2c-.267-.267-.4-.333-.4-.2.533-.133 1-.2 1.4-.2.4 0 .8-.067 1.2-.2.133.133.233.167.3.1.067-.067.167-.033.3.1h1c.267-.133.533-.167.8-.1s.533.1.8.1h2zm1.4-.2c0-.133.033-.167.1-.1s.1.033.1-.1h.4c-.267 0-.467.067-.6.2zm1.8-.2c.133.133.133.167 0 .1s-.2-.033-.2.1h-.2c0 .133.133.067.4-.2zm10 2c.133 0 .2.033.2.1s.133.1.4.1c-.133.133-.267.133-.4 0 0-.133-.033-.167-.1-.1s-.1.033-.1-.1zm4 .6h-.2c0-.133.067-.167.2-.1s.133.167 0 .3v-.2zm-5.6-1.8h.6H76.3zm-.8-.4c.133.133.4.2.8.2h-.8l-.4-.2h-.4.8zm3.4 1.4c-.133-.133-.333-.2-.6-.2v-.2c.133 0 .2.033.2.1s.067.1.2.1h.2v.2zm-5.2-1.6c.133.133.4.2.8.2.267.133.533.2.8.2.133 0 .2.033.2.1s.067.1.2.1c.267 0 .667.133 1.2.4 0 .133.133.2.4.2h-.6c-.133 0-.267-.067-.4-.2l.2.2-.2-.2h-.2c-.133-.133-.2-.133-.2 0V35H75.3c0-.133-.067-.2-.2-.2h-1c0-.133-.067-.167-.2-.1s-.2.033-.2-.1h1v.2h.4v-.2H74.5v-.2h-.8l-.4-.2h.4zm-4.2 0c.133-.133.133-.2 0-.2h.2v.2-.2h1c.267 0 .467.067.6.2h-.8c0-.133.133-.067.4.2v-.2c.133.133.2.133.2 0 .267.133.733.2 1.4.2.133 0 .267.067.4.2H73.5v.2c.267 0 .467.067.6.2h.6l.2.2h1c.133.133.333.2.6.2.133.133.267.2.4.2.267.133.467.2.6.2.133.133.133.2 0 .2l.8.4h-.4l.2.2h-.2c-.133 0-.267-.067-.4-.2l-.8-.4c-.267 0-.433-.033-.5-.1s-.233-.1-.5-.1c.133-.133.267-.133.4 0 0-.133-.1-.233-.3-.3-.2-.067-.3-.033-.3.1h.2-.4v.2h-.4c-.133-.133-.267-.2-.4-.2h-.4c-.267-.133-.5-.2-.7-.2-.2 0-.433-.067-.7-.2h-.6c-.133-.133-.233-.167-.3-.1-.067.067-.1-.033-.1-.3.133.133.467.2 1 .2 0 .133.133.2.4.2s.467.067.6.2h.8l.2.2c.133-.133.133-.2 0-.2h-.4l-.2-.2h-.6 1.2l.2.2c0-.133-.033-.167-.1-.1s-.1.033-.1-.1h-.2c-.133-.133-.4-.2-.8-.2-.133-.133-.4-.2-.8-.2h-1l-.4-.2h-1.6c-.267 0-.433-.033-.5-.1s-.167-.1-.3-.1c-.133-.133-.4-.2-.8-.2.267-.133.433-.167.5-.1s.233.033.5-.1l.2.2zm1.6 0c0 .133.033.2.1.2s.1.067.1.2h.4c0-.133-.067-.2-.2-.2h-.4v-.2zm6.2 3c-.133 0-.233-.067-.3-.2-.067-.133-.167-.133-.3 0 0-.133-.133-.2-.4-.2-.133 0-.233-.033-.3-.1-.067-.067-.167-.1-.3-.1h-.2c0-.133-.067-.2-.2-.2h-.2c-.133 0-.2-.067-.2-.2h-.2.2c.133 0 .2.067.2.2h.4v-.2c.133.133.333.2.6.2.133.133.467.333 1 .6h.4l.2.2h-.4zM63.7 21l.2-.2h.2l.4-.2h.2l-1 .4zm-5.2 2c-.267 0-.533.133-.8.4-.133-.133-.133-.2 0-.2s.2-.067.2-.2h.6zm7.8-2.6h-.4c.133-.133.3-.167.5-.1s.367.033.5-.1h-.2c-.133 0-.2.067-.2.2h-.2zm7.8-1.8c-.267.133-.433.167-.5.1s-.167-.033-.3.1c0-.133.067-.167.2-.1s.267.033.4-.1h.2zm-25.4 9.2c.133-.133.267-.2.4-.2s.267-.067.4-.2c-.4.4-.667.533-.8.4zm19.4-7.6c.267 0 .433-.033.5-.1s.233-.1.5-.1.433-.033.5-.1.167-.1.3-.1a4.939 4.939 0 0 1-1.6.5c-.533.067-.933.167-1.2.3.133-.133.267-.2.4-.2s.333-.067.6-.2zm4.4-1.2c0 .133-.067.2-.2.2h-.2c-.133.133-.2.167-.2.1s-.067-.033-.2.1c0-.133.133-.2.4-.2.133-.133.2-.167.2-.1s.067.033.2-.1zm-11.4 3.6c-.133 0-.2.067-.2.2a.888.888 0 0 0-.4.1.888.888 0 0 1-.4.1c0-.133.067-.2.2-.2s.2-.067.2-.2h.4v-.2H61.5c.133-.133.267-.2.4-.2s.267-.067.4-.2h.4c0-.133.033-.167.1-.1s.1.033.1-.1c.267 0 .4-.067.4-.2l1-.2c.133-.133.333-.133.6 0 .133-.267.467-.4 1-.4h-.2l-.2.2c-.533.133-1.033.267-1.5.4a6.598 6.598 0 0 0-1.1.4c-.267.133-.5.2-.7.2-.2 0-.433.067-.7.2l-.4.2zm-11.2 5c0-.133-.033-.133-.1 0s-.167.133-.3 0c.267-.133.467-.2.6-.2.133 0 .333-.067.6-.2 0 .133-.133.2-.4.2-.133 0-.267.067-.4.2zm5-2c0-.133-.067-.2-.2-.2l.4-.4.4-.2h.6c0 .133.133.067.4-.2 0 .133-.133.2-.4.2-.267.267-.467.4-.6.4.267 0 .467-.067.6-.2l.4-.2c.133 0 .2.033.2.1s.067.1.2.1c-.133.133-.267.2-.4.2s-.267.067-.4.2c-.267.133-.5.233-.7.3-.2.067-.433.167-.7.3l.4-.4.4-.2c-.133-.133-.333-.067-.6.2zm3.4-1.8c-.667.267-1.133.533-1.4.8 0-.267.067-.4.2-.4s.267-.067.4-.2c0-.133.2-.2.6-.2.533-.267 1-.467 1.4-.6l-.2.2h-.4c-.133.133-.233.2-.3.2-.067 0-.167.067-.3.2zm-5 2.2c0 .133-.067.2-.2.2 0-.133.1-.2.3-.2.2 0 .233-.067.1-.2h.4c0 .133-.2.2-.6.2zm14.4-5.4c0 .133-.133.2-.4.2 0 .133-.067.2-.2.2h-.2c0 .133-.1.2-.3.2-.2 0-.367.067-.5.2-.133-.133-.133-.2 0-.2s.2-.067.2-.2l1.4-.4zm-16 6.4c-.133 0-.233.033-.3.1-.067.067-.167.1-.3.1.267-.133.5-.267.7-.4.2-.133.433-.267.7-.4 0 .133-.067.2-.2.2s-.2.067-.2.2c-.133.133-.2.167-.2.1s-.067-.033-.2.1zm11.2-4.8l.4-.2h.2c0 .133-.133.2-.4.2h-.2zm-9.4 4c.133 0 .2.067.2.2h-.4v-.2c.133 0 .2.067.2.2v-.2zm7.4-3.2l.2-.2H61.7h-.4l-.2.2h-.4.2zm-4.2 1.8c.133-.133.3-.233.5-.3.2-.067.367-.167.5-.3h.2c-.133.133-.3.233-.5.3-.2.067-.433.167-.7.3zm4.4-1.8l-.2.2c.267-.267.6-.4 1-.4 0 .133-.133.2-.4.2h-.4zm-11 5.2l.2-.2c.133.133 0 .267-.4.4-.267.133-.567.267-.9.4-.333.133-.633.267-.9.4l.2-.2h.2l.6-.4c.133 0 .2-.033.2-.1s.067-.1.2-.1c.133-.133.333-.2.6-.2zm7.4-3.6v.2h-.2c0 .133-.033.2-.1.2s-.1-.067-.1-.2l.4-.2zm7.8-2.4c.133-.133.4-.2.8-.2-.267 0-.533.067-.8.2zm-4.8 2c0 .267-.267.4-.8.4l.8-.4zm8.2-2.4c.133-.133.4-.2.8-.2 0-.133.067-.2.2-.2l-.4.2-.4.2h-.2zm-1-2c-.267.133-.6.2-1 .2 0-.133.067-.167.2-.1s.2.033.2-.1c.4 0 .667-.067.8-.2-.533 0-.867.067-1 .2-.133 0-.133-.067 0-.2h.2c.133 0 .267-.067.4-.2s.333-.2.6-.2h.2c.133 0 .267-.067.4-.2s.2-.067.2.2c-.267 0-.467.067-.6.2.267 0 .433-.033.5-.1s.233-.1.5-.1c-.133.133-.333.2-.6.2 0 .133.067.267.2.4h-.2v-.2l-.2.2v-.2.2c-.267-.267-.533-.267-.8 0zm-4.4 1c.267-.267.6-.4 1-.4 0 .133-.133.233-.4.3-.267.067-.467.1-.6.1zm-12.8 6.8c0-.133.067-.2.2-.2.133-.133.267-.2.4-.2 0 .133-.2.267-.6.4zm1.4 0c-.267-.133-.2-.267.2-.4s.533-.267.4-.4c.133 0 .267-.067.4-.2s.2-.067.2.2c-.133 0-.2.067-.2.2-.267 0-.4.067-.4.2-.133.133-.2.133-.2 0l-.4.4zm19.8-7.4c0-.133-.033-.167-.1-.1s-.1.033-.1-.1c.533 0 1-.067 1.4-.2h-.4v.2c-.4 0-.667.067-.8.2zM60.9 24c0-.133-.067-.133-.2 0a.888.888 0 0 0-.4.1.888.888 0 0 1-.4.1c.267-.267.667-.4 1.2-.4-.133 0-.2.067-.2.2zm9-2.4c0 .133.133.1.4-.1s.4-.167.4.1l-1.2.4c-.4.133-.8.2-1.2.2V22h.8v-.2c.133-.133.233-.167.3-.1.067.067.167.033.3-.1v.2c0-.133.067-.2.2-.2v.2-.2zM46.5 29h-.4c.133-.133.233-.2.3-.2.067 0 .167-.067.3-.2v.2c-.133 0-.2.067-.2.2zm31.8-10.8a3.55 3.55 0 0 1-1.6.4c.267-.267.633-.433 1.1-.5.467-.067.833-.1 1.1-.1 0-.133.067-.2.2-.2h-.8.8c.133-.133.4-.2.8-.2v.2c-.133 0-.2.033-.2.1s-.067.1-.2.1c-.267 0-.433.033-.5.1s-.233.1-.5.1h-.2zm-7 1.8l-.2-.2c-.133.133-.333.2-.6.2 0-.133.2-.2.6-.2.267-.267.633-.4 1.1-.4.467 0 .833-.067 1.1-.2.267-.133.5-.2.7-.2.2 0 .433-.067.7-.2h.6c-.133 0-.233.033-.3.1-.067.067-.167.1-.3.1-.267.133-.467.2-.6.2-.133 0-.267.067-.4.2l-.2-.2v.2a.888.888 0 0 0-.4.1.888.888 0 0 1-.4.1h-.2l-.8.2-.2.2c0-.133.067-.2.2-.2-.267-.267-.4-.2-.4.2zM22.9 2.6l-.4-.4c.8.267 1.4.533 1.8.8h-.4c-.133-.133-.267-.2-.4-.2-.133-.133-.333-.2-.6-.2zm5.4 3.2c.133-.133.133-.2 0-.2.4.4.667.8.8 1.2v-.2c-.133 0-.2-.067-.2-.2l-.4-.4-.2-.2zM14.9 1.4c0 .133-.2.2-.6.2.133-.133.233-.167.3-.1.067.067.167.033.3-.1zm-1.4.6l.2-.2h.2c0 .133-.067.2-.2.2h-.2zm-.4.2c-.133.133-.267.2-.4.2-.133-.133 0-.2.4-.2zm13 1.2c-.133 0-.233-.033-.3-.1-.067-.067-.167-.1-.3-.1 0-.267-.133-.4-.4-.4.133 0 .233.033.3.1.067.067.167.1.3.1l.6.6-.2-.2zM16.5.8h-.2l.2-.2H17.1l-.4.2h-.2zm4.6.4h.4c0 .133.067.133.2 0 .133.133.333.2.6.2l.2.2h.2c.133 0 .2.067.2.2h.4c.133 0 .233.033.3.1.067.067.167.1.3.1.133.133.267.2.4.2l.2.2.2.2c-.267-.267-.533-.4-.8-.4l-.2-.2c-.4-.133-.833-.267-1.3-.4-.467-.133-.833-.2-1.1-.2-.267-.267-.4-.333-.4-.2h.2zm8.2 17.6v.8c0 .133-.067.2-.2.2l.2-.4v-1 .4zM15.7 3h-.4c0-.267.1-.367.3-.3.2.067.433.033.7-.1 0 .133-.033.167-.1.1s-.1-.033-.1.1h.6c.133-.133.333-.2.6-.2-.267.267-.4.333-.4.2-.133 0-.267.067-.4.2h-.8zm8.6 0c.133 0 .233.033.3.1.067.067.167.1.3.1.133.133.267.2.4.2.533.4 1 .767 1.4 1.1.4.333.733.767 1 1.3.267 0 .4.133.4.4l.4.4c.267.4.5.8.7 1.2.2.4.3.8.3 1.2.267.267.4.533.4.8.133.267.233.533.3.8.067.267.167.533.3.8l-.2-.2v.2a11.921 11.921 0 0 1-.4-.9c-.133-.333-.267-.7-.4-1.1 0-.133-.033-.2-.1-.2s-.1-.067-.1-.2l-.4-.8c-.267-.533-.4-.933-.4-1.2l-.4-.4c-.133-.133-.2-.267-.2-.4h-.2c0-.133-.133-.333-.4-.6 0-.133-.067-.267-.2-.4-.4-.533-.867-.933-1.4-1.2a4.848 4.848 0 0 0-.7-.6 6.538 6.538 0 0 0-.7-.4zm1.8 2c-.267-.133-.333-.267-.2-.4l.4.4c-.133.133-.167.133-.1 0s.033-.133-.1 0zm-1.2-1c0-.133.033-.133.1 0s.1.133.1 0l.2.2h-.4V4zm-9-1.6h.4-.4zm13.2 16.8v.4l-.2.2v.4c0 .133-.067.2-.2.2v.4l-.2.4v-.4h.2c-.133-.133-.2-.333-.2-.6.133 0 .2-.133.2-.4 0-.133.067-.2.2-.2l.2-.4zm-15.6-15h.4-.4zm4.4-1.4h.2c0 .133-.067.2-.2.2h-.4.4v-.2zm1.6 0h-.2c-.267.133-.467.167-.6.1-.133-.067-.333-.033-.6.1.133-.133.6-.2 1.4-.2zm-3.2.2c-.267.267-.4.333-.4.2h-.2.4c0-.133.033-.167.1-.1s.1.033.1-.1zm3.2-.2l-.4-.2h-1c-.133.133-.267.2-.4.2h-.2c0-.133-.067-.2-.2-.2h-.2c0-.133.133-.2.4-.2h.4-.2 2.6-.2v.2h-.6c-.133 0-.2-.033-.2-.1s-.067-.1-.2-.1c0 .133.067.2.2.2h.2c.133.133.267.2.4.2.133-.133.2-.133.2 0H20.7 19.5zm-2.8-.6h-.8.2l-.2-.2c0-.133.067-.167.2-.1s.267.033.4-.1H18.3h-.4c0 .133.067.2.2.2h.2c.133 0 .2-.067.2-.2h-.2.4v-.2h1c.267 0 .5.033.7.1.2.067.433.1.7.1.267 0 .467.067.6.2.267 0 .4.067.4.2-.267 0-.433-.033-.5-.1s-.233-.1-.5-.1a.888.888 0 0 1-.4-.1c-.133-.067-.333-.1-.6-.1-.4 0-.667-.067-.8-.2 0 .133.067.2.2.2h.2c.133 0 .233.033.3.1.067.067.233.1.5.1h-1.4c0 .133.033.133.1 0s.1-.133.1 0h.2c.133 0 .233.033.3.1.067.067.167.1.3.1h.4c.133 0 .267.067.4.2l.2-.2H21.7c.133.133.267.2.4.2.133.133.267.2.4.2.267 0 .467.033.6.1.133.067.267.1.4.1.267.133.533.333.8.6 0 .133.133.267.4.4-.267 0-.4-.033-.4-.1s-.133-.1-.4-.1l-.2-.2v.2c-.133 0-.167-.033-.1-.1s.033-.1-.1-.1a.888.888 0 0 1-.4-.1.888.888 0 0 0-.4-.1c-.133 0-.233-.033-.3-.1-.067-.067-.167-.1-.3-.1.4 0 .667.067.8.2 0-.133-.033-.2-.1-.2s-.1-.067-.1-.2l-.2.2h-.2c-.267-.267-.6-.4-1-.4h-.4v-.2H20.3v-.2h-3c-.267 0-.467.067-.6.2v-.2zm5.2.4c0 .133.067.2.2.2h.4V3c0-.133-.033-.2-.1-.2s-.1-.067-.1-.2h-.4zm-5.8-1.2h-.2c0-.133.033-.167.1-.1s.1.033.1-.1l.2-.2h.2c.133.133.267.133.4 0h1.2V.8c.133.133.267.2.4.2s.2-.067.2-.2c.133.133.333.2.6.2h-1v.2h-1.8l-.4.2z" fill="#FFF" fill-rule="evenodd"/></svg>