<svg xmlns="http://www.w3.org/2000/svg" viewBox="0 0 16 16"><path fill="#3F3F3F" d="M8 .198c-4 0-8 3.582-8 8a8.001 8.001 0 0 0 5.471 7.591c.4.074.547-.174.547-.385 0-.191-.008-.821-.011-1.489-2.226.484-2.694-.944-2.694-.944-.365-.925-.889-1.171-.889-1.171-.726-.497.056-.485.056-.485.803.056 1.226.823 1.226.823.714 1.224 1.872.869 2.328.665.072-.517.279-.87.508-1.069-1.777-.202-3.645-.889-3.645-3.954 0-.873.313-1.587.823-2.148-.083-.202-.357-1.015.077-2.117 0 0 .672-.215 2.201.82A7.672 7.672 0 0 1 8 4.066c.68.003 1.365.092 2.004.269 1.527-1.035 2.198-.82 2.198-.82.435 1.103.162 1.916.079 2.117.513.561.823 1.274.823 2.148 0 3.072-1.872 3.749-3.653 3.946.287.248.543.735.543 1.481 0 1.07-.009 1.932-.009 2.195 0 .213.143.462.55.384A8 8 0 0 0 16 8.196c0-4.418-4-8-8-8v.002z"/></svg>