<svg xmlns="http://www.w3.org/2000/svg" viewBox="0 0 16 16"><path fill="#3F3F3F" d="M8 0a8 8 0 1 0 0 16A8 8 0 0 0 8 0zm4.751 12.751a6.7 6.7 0 0 1-2.134 1.44c-.203.086-.617.161-.617.226v-1.199c0-.63-.218-1.094-.65-1.391a5.668 5.668 0 0 0 1.464-.312c.253-.088.478-.193.679-.315.201-.122.392-.281.578-.477.185-.195.34-.417.465-.664s.224-.544.297-.891c.073-.347.109-.727.109-1.144 0-.808-.264-1.495-.789-2.063.239-.625.214-1.305-.078-2.039l-.195-.024c-.135-.017-.379.042-.73.172-.352.13-.746.344-1.185.641a7.184 7.184 0 0 0-1.93-.258 7.04 7.04 0 0 0-1.922.258 6.663 6.663 0 0 0-.784-.466 3.906 3.906 0 0 0-.594-.25 2.03 2.03 0 0 0-.66-.09.393.393 0 0 0-.078.016c-.292.74-.318 1.419-.078 2.039-.526.568-.789 1.255-.789 2.063 0 .417.036.798.109 1.145.073.347.172.642.297.891.125.248.28.47.465.664.184.195.378.354.578.477.2.123.427.227.68.315a6.149 6.149 0 0 0 1.424.312c-.428.293-.683.756-.683 1.392v1.223c0-.07-.426-.153-.656-.25a6.62 6.62 0 0 1-2.115-1.44A6.694 6.694 0 0 1 1.278 8a6.698 6.698 0 0 1 1.971-4.751 6.673 6.673 0 0 1 4.752-1.966 6.693 6.693 0 0 1 4.751 1.966A6.676 6.676 0 0 1 14.718 8a6.693 6.693 0 0 1-1.967 4.751z"/></svg>