<svg xmlns="http://www.w3.org/2000/svg" viewBox="0 0 16 16"><path fill="#3F3F3F" d="M0 8.694c0 .725.068 1.381.203 1.968a5.89 5.89 0 0 0 .562 1.53c.24.433.545.814.915 1.142.37.329.772.597 1.205.806.434.209.928.378 1.483.51.556.13 1.123.222 1.702.274.579.052 1.215.078 1.909.078.698 0 1.338-.026 1.917-.078a12.3 12.3 0 0 0 1.706-.274 7.313 7.313 0 0 0 1.489-.51c.436-.209.84-.476 1.213-.806.373-.329.682-.709.924-1.142.241-.434.432-.943.566-1.53a8.74 8.74 0 0 0 .203-1.968c0-1.294-.433-2.412-1.299-3.357.047-.125.09-.267.129-.426.039-.159.076-.386.11-.681a3.894 3.894 0 0 0-.039-1.022 5.403 5.403 0 0 0-.333-1.181l-.115-.022a1.477 1.477 0 0 0-.411.012c-.191.024-.412.07-.665.142-.253.069-.579.206-.978.407-.399.2-.82.451-1.265.755-.761-.209-1.807-.314-3.137-.314-1.325 0-2.368.105-3.13.314a10.536 10.536 0 0 0-1.27-.756 6.298 6.298 0 0 0-.966-.407 3.76 3.76 0 0 0-1.068-.157.726.726 0 0 0-.129.027 5.363 5.363 0 0 0-.333 1.181c-.06.386-.072.726-.039 1.022.034.295.07.521.11.681.039.158.082.3.129.425C.432 6.281-.001 7.4-.001 8.694H0zm1.964 1.964c0-.751.342-1.44 1.025-2.066.203-.188.44-.33.712-.426.271-.096.578-.151.919-.164.342-.013.669-.01.982.008.313.018.699.043 1.158.074.459.031.855.047 1.189.047s.73-.016 1.188-.047c.459-.031.846-.056 1.158-.074.313-.018.64-.021.982-.008.342.013.648.068.919.164s.508.239.712.426c.683.616 1.024 1.305 1.024 2.066 0 .449-.056.846-.168 1.192a2.945 2.945 0 0 1-.43.872 2.152 2.152 0 0 1-.727.6 5.132 5.132 0 0 1-.908.38 6.352 6.352 0 0 1-1.134.207c-.462.05-.874.08-1.236.09-.362.01-.823.016-1.381.016-.559 0-1.018-.005-1.381-.016a15.6 15.6 0 0 1-1.236-.09 6.518 6.518 0 0 1-1.134-.207 5.028 5.028 0 0 1-.908-.38 2.122 2.122 0 0 1-.728-.6 2.958 2.958 0 0 1-.431-.872 3.906 3.906 0 0 1-.166-1.192zM10 10.5c0-.828.448-1.5 1-1.5s1 .672 1 1.5-.448 1.5-1 1.5-1-.672-1-1.5zm-6 0C4 9.672 4.448 9 5 9s1 .672 1 1.5S5.552 12 5 12s-1-.672-1-1.5z"/></svg>