<svg xmlns="http://www.w3.org/2000/svg" viewBox="0 0 16 16"><path fill="#3F3F3F" d="M16 3.038a6.555 6.555 0 0 1-1.885.517 3.283 3.283 0 0 0 1.442-1.815 6.618 6.618 0 0 1-2.085.797A3.283 3.283 0 0 0 7.878 5.53a9.324 9.324 0 0 1-6.765-3.431 3.266 3.266 0 0 0-.444 1.65c0 1.139.758 2.144 1.639 2.732C1.77 6.464 1 6.316 1 6.07v.041c0 1.59.954 2.917 2.455 3.219a4.002 4.002 0 0 1-.955.115c-.212 0-.462-.021-.663-.06a3.257 3.257 0 0 0 3.044 2.28 6.62 6.62 0 0 1-4.877 1.359A9.277 9.277 0 0 0 5.033 14.5c6.038 0 9.338-5.002 9.338-9.34 0-.143-.004-.284-.01-.425a6.661 6.661 0 0 0 1.637-1.699l.002.002z"/></svg>