<svg width="1118" height="80" viewBox="0 0 1118 80" xmlns="http://www.w3.org/2000/svg"><title>FERNANDO COELHO</title><path d="M.75 39.9V80h13.3V53.4h40V39.9H.75zM.75 0l13.3 13.4h40V0H.75zm63.7 78.9V80h53.3V66.6h-40l-13.3 12.3zm0-78.9l13.3 13.4h40V0h-53.3zm0 33.4v13.3h53.3V33.4h-53.3zm120.6 8.3c3.2-4.5 4.7-9.5 4.7-15.1 0-7.3-2.6-13.5-7.8-18.8-5.2-5.2-11.5-7.8-18.8-7.8h-35.1l6.9 11.9 1.5 1.5h26.7c3.6 0 6.7 1.3 9.3 3.9 2.7 2.6 4 5.7 4 9.3 0 3.7-1.3 6.9-4 9.5-2.6 2.6-5.7 3.9-9.3 3.9l-11.9-.1 23.2 40.1h15.3l-16.4-28.7c4.7-1.9 8.6-5.1 11.7-9.6zM257.35 0v47.9L204.15 0v20.2l66.5 59.8V0h-13.3zm61.8 53.4l11.8-23.5 11.7 23.5h15L330.95 0l-40 80h14.8l6.8-13.4 6.6-13.2zm45.1 13.3h-14.8l6.6 13.3h14.9l-6.7-13.3zM429.05 0v47.9L375.85 0v20.2l66.5 59.8V0h-13.3zm92.1 24.6c-2.2-4.9-5-9.1-8.7-12.8-3.6-3.6-7.9-6.5-12.7-8.6-4.9-2.1-10-3.2-15.5-3.2h-26.6l13.3 13.4h13.3c3.6 0 7.1.7 10.3 2 3.2 1.4 6.1 3.4 8.5 5.8 2.5 2.5 4.4 5.3 5.8 8.5 1.4 3.3 2.1 6.7 2.1 10.3 0 3.6-.7 7-2.1 10.3-1.4 3.2-3.3 6-5.7 8.5-2.4 2.5-5.3 4.4-8.5 5.8-3.2 1.3-6.7 2-10.4 2h-13.3L457.65 80h26.6c5.5 0 10.7-1.1 15.5-3.2 4.9-2.1 9.2-5 12.8-8.6 3.6-3.7 6.4-7.9 8.6-12.8 2.1-4.8 3.1-9.9 3.1-15.4s-1-10.6-3.1-15.4zM580.65 0c-11.1 0-20.5 4-28.2 11.8-7.8 7.8-11.8 17.2-11.8 28.2 0 11.1 4 20.4 11.8 28.2 7.8 7.8 17.1 11.8 28.2 11.8 11.1 0 20.4-4 28.2-11.8 7.9-7.7 11.9-17.1 11.9-28.2 0-11-4-20.4-11.9-28.2C601.05 4 591.75 0 580.65 0zm0 13.4c7.3 0 13.6 2.6 18.8 7.8 5.2 5.2 7.8 11.5 7.8 18.8 0 7.3-2.5 13.6-7.8 18.9-5.2 5.2-11.5 7.7-18.8 7.7-7.3 0-13.7-2.5-18.9-7.7-5.2-5.2-7.7-11.6-7.7-18.9 0-7.3 2.5-13.6 7.7-18.8 5.3-5.3 11.6-7.8 18.9-7.8zm106.1 63.4c4.8 2.1 10 3.2 15.5 3.2s10.7-1 15.5-3.1l-15.5-10.3c-3.7 0-7.1-.7-10.4-2-3.2-1.4-6-3.3-8.4-5.8-2.5-2.4-4.4-5.2-5.8-8.4-1.4-3.3-2.1-6.7-2.1-10.4s.7-7.1 2.1-10.4c1.4-3.2 3.3-6 5.7-8.4 2.4-2.5 5.2-4.4 8.5-5.8 3.2-1.3 6.7-2 10.4-2 7.2 0 13.5 2.5 18.8 7.7l9.5-9.3c-3.7-3.7-8-6.6-12.8-8.7-4.8-2.1-10-3.1-15.5-3.1s-10.7 1.1-15.5 3.2c-4.9 2.1-9.1 4.9-12.8 8.6-3.6 3.6-6.5 7.8-8.6 12.6-2.1 4.9-3.2 10.1-3.2 15.6 0 5.4 1.1 10.5 3.2 15.4s5 9.1 8.6 12.8c3.7 3.6 7.9 6.5 12.8 8.6zM774.15 0c-11.1 0-20.5 4-28.2 11.8-7.8 7.8-11.8 17.2-11.8 28.2 0 11.1 4 20.4 11.8 28.2 7.8 7.8 17.1 11.8 28.2 11.8 11.1 0 20.4-4 28.2-11.8 7.9-7.7 11.9-17.1 11.9-28.2 0-11-4-20.4-11.9-28.2C794.55 4 785.25 0 774.15 0zm0 13.4c7.3 0 13.6 2.6 18.8 7.8 5.2 5.2 7.8 11.5 7.8 18.8 0 7.3-2.5 13.6-7.8 18.9-5.2 5.2-11.5 7.7-18.8 7.7-7.3 0-13.7-2.5-18.9-7.7-5.2-5.2-7.7-11.6-7.7-18.9 0-7.3 2.5-13.6 7.7-18.8 5.3-5.3 11.6-7.8 18.9-7.8zm56.5 65.5V80h53.3V66.6h-40l-13.3 12.3zm0-78.9l13.3 13.4h40V0h-53.3zm0 33.4v13.3h53.3V33.4h-53.3zm76.9 33.2L894.25 80h53.3V66.6h-40zM894.25 0V61.9l13.3-13.4V0h-13.3zm114.9 0v33.3h-40l-13.3 13.4V80h13.3V46.7h40V80h13.3V0h-13.3zm68.6 0c-11.1 0-20.5 4-28.2 11.8-7.8 7.8-11.8 17.2-11.8 28.2 0 11.1 4 20.4 11.8 28.2 7.8 7.8 17.1 11.8 28.2 11.8 11.1 0 20.4-4 28.2-11.8 7.9-7.7 11.9-17.1 11.9-28.2 0-11-4-20.4-11.9-28.2-7.8-7.8-17.1-11.8-28.2-11.8zm0 13.4c7.3 0 13.6 2.6 18.8 7.8 5.2 5.2 7.8 11.5 7.8 18.8 0 7.3-2.5 13.6-7.8 18.9-5.2 5.2-11.5 7.7-18.8 7.7-7.3 0-13.7-2.5-18.9-7.7-5.2-5.2-7.7-11.6-7.7-18.9 0-7.3 2.5-13.6 7.7-18.8 5.3-5.3 11.6-7.8 18.9-7.8z" fill="#FFF" fill-rule="evenodd"/></svg>