<svg width="969" height="177" viewBox="0 0 969 177" xmlns="http://www.w3.org/2000/svg"><title>Fernando Coelho</title><path d="M55.1 26.8c-4-.267-8.033-.433-12.1-.5s-8.1.3-12.1 1.1c-3.467.667-6.7 1.633-9.7 2.9-3 1.267-5.567 3.367-7.7 6.3-2 2.533-3.7 5.033-5.1 7.5-1.4 2.467-1.967 5.367-1.7 8.7.4 6.133 3.067 10.6 8 13.4 2.667 1.6 5.6 2.367 8.8 2.3 3.2-.067 6.067-1.033 8.6-2.9 2.267-1.467 3.933-3.667 5-6.6.267-.667.567-1.4.9-2.2.333-.8.5-1.667.5-2.6 0-1.333.667-2.2 2-2.6.933-.133 1.533.067 1.8.6.267.533.367 1.2.3 2a11.86 11.86 0 0 1-.5 2.5c-.267.867-.467 1.5-.6 1.9-.933 3.467-2.6 6.267-5 8.4-2.267 1.867-4.967 3.033-8.1 3.5-3.133.467-6.033.433-8.7-.1-3.467-.667-6.367-2.1-8.7-4.3-2.333-2.2-4.033-4.9-5.1-8.1-1.067-3.467-1.333-6.833-.8-10.1.533-3.267 1.667-6.267 3.4-9 1.733-2.733 3.933-5.1 6.6-7.1s5.667-3.467 9-4.4c7.867-2.267 15.733-3.2 23.6-2.8 7.867.4 15.8.8 23.8 1.2 1.867.133 3.8.233 5.8.3 2 .067 3.933.167 5.8.3 2.133.267 3.467-.133 4-1.2l2-4c2.933-6.267 7.133-11.6 12.6-16 4.933-4 10.733-5.6 17.4-4.8 1.6.267 3.167.633 4.7 1.1 1.533.467 2.967 1.233 4.3 2.3 1.733 1.467 2.767 3.1 3.1 4.9.333 1.8.167 3.6-.5 5.4-.667 1.8-1.633 3.5-2.9 5.1-1.267 1.6-2.567 2.867-3.9 3.8-2.667 1.867-5.9 3.1-9.7 3.7-3.8.6-7.233 1.033-10.3 1.3-.667 0-1.3.033-1.9.1-.6.067-1.167.433-1.7 1.1-.533.667-.933 1.5-1.2 2.5-.267 1-.533 1.9-.8 2.7a105.33 105.33 0 0 0-1.8 5.5 105.33 105.33 0 0 1-1.8 5.5 151.633 151.633 0 0 0-3.5 11.1c-1 3.667-2.033 7.433-3.1 11.3-.267 1.067-.733 2.467-1.4 4.2-.667 1.733-.867 3.067-.6 4 .267.533.733.767 1.4.7.667-.067 1.133-.1 1.4-.1.933.133 1.867.233 2.8.3.933.067 1.867.167 2.8.3 1.867.133 3.633.067 5.3-.2a37.486 37.486 0 0 0 5.1-1.2c.8-.267 1.433-.767 1.9-1.5.467-.733.867-1.467 1.2-2.2.333-.733.7-1.333 1.1-1.8.4-.467 1-.567 1.8-.3.8.267 1.233.7 1.3 1.3.067.6-.1 1.233-.5 1.9-.4.667-.967 1.333-1.7 2s-1.5 1.2-2.3 1.6a16.133 16.133 0 0 1-5.4 1.8 39.55 39.55 0 0 1-5.6.4c-1.467-.133-3.133-.367-5-.7-1.867-.333-3.533-.3-5 .1-.667.133-1.167.5-1.5 1.1a8.95 8.95 0 0 0-.8 2c-.2.733-.333 1.5-.4 2.3-.067.8-.167 1.4-.3 1.8a495.325 495.325 0 0 1-6.1 22.2c-2.2 7.333-5.233 14.4-9.1 21.2-1.867 3.2-4.133 6.267-6.8 9.2-2.667 2.933-5.533 5.467-8.6 7.6-2.933 2-6.267 3.767-10 5.3-3.733 1.533-7.333 2.367-10.8 2.5-3.467.267-7.1-.067-10.9-1-3.8-.933-7.1-2.533-9.9-4.8-2.667-2.133-4.9-4.7-6.7-7.7-1.8-3-3.033-6.233-3.7-9.7-.8-3.467-.8-7 0-10.6.8-3.6 2.133-6.867 4-9.8 1.733-2.8 4.133-5.2 7.2-7.2 1.467-.8 3.067-1.633 4.8-2.5 1.733-.867 3.4-1.433 5-1.7 3.333-.267 6.633.133 9.9 1.2 3.267 1.067 5.833 3 7.7 5.8 1.733 2.933 2.333 5.867 1.8 8.8-.267 1.467-.933 2.2-2 2.2-.933-.133-1.433-.567-1.5-1.3-.067-.733-.1-1.433-.1-2.1 0-1.467-.1-2.9-.3-4.3-.2-1.4-.833-2.633-1.9-3.7-1.2-1.067-2.533-2-4-2.8-1.467-.8-3-1.333-4.6-1.6-3.6-.667-7.033-.033-10.3 1.9-3.267 1.933-6.033 4.1-8.3 6.5-2.533 2.533-4.3 5.733-5.3 9.6s-.967 7.333.1 10.4c1.067 3.467 2.333 6.667 3.8 9.6 1.467 2.933 3.667 5.533 6.6 7.8 4.4 3.467 9.4 5.133 15 5s10.533-1.867 14.8-5.2c2.4-1.867 4.433-4 6.1-6.4a85.81 85.81 0 0 0 4.7-7.6c1.467-2.8 2.9-5.6 4.3-8.4 1.4-2.8 2.633-5.733 3.7-8.8.533-1.6 1.367-4.333 2.5-8.2a713.15 713.15 0 0 0 3.4-12c1.133-4.133 2.1-7.933 2.9-11.4.8-3.467 1.133-5.6 1-6.4 0-.4-.6-.667-1.8-.8-1.2-.133-2.5-.267-3.9-.4s-2.733-.2-4-.2h-2.3a33.535 33.535 0 0 0-4.4.7c-1.467.333-2.8.9-4 1.7-.533.4-1.067.9-1.6 1.5-.533.6-1.033 1.2-1.5 1.8-.467.6-1 1.033-1.6 1.3-.6.267-1.167.2-1.7-.2-.667-.533-.8-1.067-.4-1.6.4-.533.933-1.133 1.6-1.8.533-.4 1-.833 1.4-1.3.4-.467.933-.9 1.6-1.3 1.733-1.2 3.5-2 5.3-2.4 1.8-.4 3.667-.567 5.6-.5 1.933.067 3.833.233 5.7.5s3.667.333 5.4.2c1.733-.133 2.733-1.133 3-3 .267-1.867.6-3.467 1-4.8l3.2-12c1.067-4 2.133-7.933 3.2-11.8.667-2 1.267-4.033 1.8-6.1a40.894 40.894 0 0 1 2-5.9c.267-.667-.7-1.267-2.9-1.8-2.2-.533-4.933-.933-8.2-1.2-3.267-.267-6.7-.5-10.3-.7-3.6-.2-6.667-.3-9.2-.3zm64-3.8c1.067-.533 2.367-1.467 3.9-2.8a18.689 18.689 0 0 0 3.8-4.5c1-1.667 1.6-3.367 1.8-5.1.2-1.733-.5-3.333-2.1-4.8a7.061 7.061 0 0 0-3.6-1.4 14.244 14.244 0 0 0-4.1.2 14.28 14.28 0 0 0-4 1.4c-1.267.667-2.3 1.333-3.1 2-1.333 1.067-2.367 2.333-3.1 3.8a62.399 62.399 0 0 1-2.3 4.2c-.933 1.733-1.8 3.367-2.6 4.9-.8 1.533-1.4 3.233-1.8 5.1 2.8.267 5.733.067 8.8-.6 3.067-.667 5.867-1.467 8.4-2.4zm40.6 100.4c.267-1.067.567-2 .9-2.8.333-.8.833-1.533 1.5-2.2.8-.933 1.3-.967 1.5-.1.2.867.167 1.567-.1 2.1a318.813 318.813 0 0 1-5.1 11.9c-1.667 3.667-3.9 7.233-6.7 10.7-1.733 2.267-3.833 4.3-6.3 6.1-2.467 1.8-5.1 3.133-7.9 4a22.056 22.056 0 0 1-8.6.9c-2.933-.267-5.667-1.333-8.2-3.2-3.067-2.133-5.367-4.867-6.9-8.2-1.533-3.333-2.367-6.8-2.5-10.4-.267-4-.033-8.167.7-12.5s1.833-8.3 3.3-11.9a48.649 48.649 0 0 1 2.3-5.4 33.966 33.966 0 0 1 2.9-4.8c2.667-3.467 5.367-6.5 8.1-9.1 2.733-2.6 6.167-3.9 10.3-3.9 2-.133 4.067.2 6.2 1 1.733.8 3.067 1.967 4 3.5.933 1.533 1.567 3.233 1.9 5.1.333 1.867.367 3.767.1 5.7a19.362 19.362 0 0 1-1.6 5.5 98.215 98.215 0 0 1-3.6 6.9c-1.333 2.333-2.867 4.367-4.6 6.1-1.6 1.733-3.233 3.233-4.9 4.5-1.667 1.267-3.767 1.767-6.3 1.5-2.267-.267-4.2-1.067-5.8-2.4a2.51 2.51 0 0 1-1-.6c-.533-.267-.8-.333-.8-.2-.133.8-.267 1.633-.4 2.5s-.267 1.767-.4 2.7c-.267 2.667-.433 5.3-.5 7.9-.067 2.6.367 5.167 1.3 7.7.4.933.9 2 1.5 3.2.6 1.2 1.3 2.333 2.1 3.4a10.342 10.342 0 0 0 2.8 2.6c1.067.667 2.2.867 3.4.6 1.867-.133 4.033-.8 6.5-2 2.467-1.2 4.967-3 7.5-5.4 2.533-2.4 4.967-5.333 7.3-8.8 2.333-3.467 4.367-7.533 6.1-12.2zm-30.6-1.4c1.733.533 3.533.167 5.4-1.1 1.867-1.267 3.333-2.433 4.4-3.5 2.933-2.8 5.333-6 7.2-9.6a49.075 49.075 0 0 0 2.5-6c.733-2.133.967-4.2.7-6.2-.267-1.467-.7-3.033-1.3-4.7-.6-1.667-1.7-2.633-3.3-2.9-1.733-.267-3.5.167-5.3 1.3-1.8 1.133-3.233 2.233-4.3 3.3a31.038 31.038 0 0 0-7 10.7c-1.6 4.067-3.133 8.1-4.6 12.1 0-.4.067-.333.2.2s.4 1.233.8 2.1.967 1.733 1.7 2.6 1.7 1.433 2.9 1.7zm52.2 7.8c.133-1.6.367-3.2.7-4.8.333-1.6.567-3.133.7-4.6.133-1.333.467-2.767 1-4.3a123.126 123.126 0 0 0 1.5-4.6c.467-1.533.9-3.033 1.3-4.5s.533-2.733.4-3.8c-1.333.667-2.467 1.9-3.4 3.7-.933 1.8-1.867 3.3-2.8 4.5a76.998 76.998 0 0 1-3.9 4.4 264.615 264.615 0 0 1-4.3 4.4c-.933.933-2.2 1.967-3.8 3.1-1.6 1.133-3.2 1.933-4.8 2.4-1.6.467-3.033.4-4.3-.2-1.267-.6-2.033-2.1-2.3-4.5-.4-4.267.167-8.433 1.7-12.5a75.469 75.469 0 0 0 3.5-12.3c.4-2 .9-4.1 1.5-6.3s.833-4.3.7-6.3c-.133-1.867.233-3.233 1.1-4.1.867-.867 2.233-.967 4.1-.3 2 .667 3.3 1.733 3.9 3.2.6 1.467.867 3.133.8 5a20.64 20.64 0 0 1-1 5.6c-.6 1.867-1.1 3.467-1.5 4.8-.667 2-1.333 3.967-2 5.9-.667 1.933-1.2 3.9-1.6 5.9-.133.533-.3 1.3-.5 2.3-.2 1-.3 1.967-.3 2.9 0 .933.2 1.633.6 2.1.4.467 1.2.433 2.4-.1 1.333-.667 2.8-1.8 4.4-3.4 1.6-1.6 3.167-3.367 4.7-5.3a108.17 108.17 0 0 0 4.3-5.8c1.333-1.933 2.4-3.5 3.2-4.7.8-1.333 1.633-2.767 2.5-4.3s2.033-2.567 3.5-3.1c1.2-.267 2.5-.2 3.9.2s2.233 1.333 2.5 2.8c.133 1.067.033 2.6-.3 4.6-.333 2-.767 4.1-1.3 6.3s-1.1 4.267-1.7 6.2c-.6 1.933-.967 3.367-1.1 4.3-.667 3.867-1.3 7.733-1.9 11.6-.6 3.867-1.233 7.733-1.9 11.6a89.515 89.515 0 0 0-.6 5.2c-.133 1.6.333 3.267 1.4 5 .933 1.6 2.033 2 3.3 1.2s2.433-1.6 3.5-2.4c2.933-2.267 5.4-4.867 7.4-7.8l6-8.8a14.456 14.456 0 0 0 2.4-4.3 14.456 14.456 0 0 1 2.4-4.3 8.89 8.89 0 0 1 1.1-.9c.467-.333.833-.233 1.1.3.267.533.2 1.167-.2 1.9-.4.733-.733 1.3-1 1.7-2 3.467-4.1 6.967-6.3 10.5a77.405 77.405 0 0 1-7.3 9.9c-1.867 2.267-4.267 4.4-7.2 6.4s-6 2.467-9.2 1.4c-2.133-.933-3.867-2.6-5.2-5-2.133-3.067-3.033-6-2.7-8.8.333-2.8.633-5.867.9-9.2zm72.6-30.4c.267-2 .633-4.2 1.1-6.6.467-2.4.433-4.6-.1-6.6-.267-1.067-.733-1.6-1.4-1.6-.667 0-1.367.267-2.1.8a17.658 17.658 0 0 0-2.1 1.8l-1.6 1.6a29.409 29.409 0 0 0-3.9 5.4c-1.133 2-2.233 3.933-3.3 5.8a222.96 222.96 0 0 0-6.4 11.7c-2 3.933-3.933 7.9-5.8 11.9-1.6 3.6-3.233 7.4-4.9 11.4-1.667 4-2.567 8-2.7 12-.133 1.6-.3 3-.5 4.2-.2 1.2-1.3 1.933-3.3 2.2-1.733.267-3.067-.067-4-1-.933-.933-1.667-2.133-2.2-3.6-1.333-4.133-1.8-8.467-1.4-13 .4-4.533.867-8.867 1.4-13 .4-4.267 1.033-8.4 1.9-12.4s2.167-7.933 3.9-11.8a19.847 19.847 0 0 1 2.5-4.1c1-1.267 2.433-1.5 4.3-.7 2.267.8 3.367 2.1 3.3 3.9a31.85 31.85 0 0 1-.7 5.5c-.667 2.4-1.267 4.8-1.8 7.2-.533 2.4-1 4.8-1.4 7.2a79.43 79.43 0 0 1-1.2 6.9c-.533 2.467-.667 4.767-.4 6.9a27.405 27.405 0 0 0 2.7-5.2 191.021 191.021 0 0 0 2.1-5.6 585.122 585.122 0 0 1 2.8-6.3c.933-2.067 1.933-4.1 3-6.1 2-3.867 4.1-7.633 6.3-11.3 2.2-3.667 4.633-7.233 7.3-10.7.8-1.2 1.733-2.367 2.8-3.5a23.832 23.832 0 0 1 3.4-3c1.2-.867 2.5-1.5 3.9-1.9 1.4-.4 2.9-.333 4.5.2 1.733.533 3.1 1.5 4.1 2.9 1 1.4 1.733 3 2.2 4.8.467 1.8.667 3.633.6 5.5-.067 1.867-.233 3.533-.5 5a817.38 817.38 0 0 1-2.1 13.5c-.733 4.467-1.567 8.9-2.5 13.3-.933 4.133-1.767 8.2-2.5 12.2-.733 4-.767 8.133-.1 12.4.267 1.6 1 2.733 2.2 3.4 1.2.667 2.533.733 4 .2 1.733-.667 3.167-1.967 4.3-3.9 1.133-1.933 2.1-3.633 2.9-5.1 1.067-1.867 2-3.767 2.8-5.7.8-1.933 1.6-3.833 2.4-5.7.133-.533.4-1.433.8-2.7.4-1.267.867-2.6 1.4-4 .533-1.4 1.033-2.6 1.5-3.6.467-1 .9-1.433 1.3-1.3.533.133.767.533.7 1.2-.067.667-.2 1.433-.4 2.3-.2.867-.467 1.7-.8 2.5s-.567 1.333-.7 1.6c-.533 1.6-1.167 3.2-1.9 4.8-.733 1.6-1.3 3.267-1.7 5-.667 2.533-1.733 5.333-3.2 8.4s-3.233 5.7-5.3 7.9c-2.067 2.2-4.467 3.6-7.2 4.2-2.733.6-5.567-.3-8.5-2.7-2.4-1.867-4.067-4.533-5-8-.933-3.467-1.2-6.667-.8-9.6 0-.4.233-2.233.7-5.5a629.948 629.948 0 0 1 1.7-11.1c.667-4.133 1.333-8.167 2-12.1s1.2-6.833 1.6-8.7zm24.6 23.8a80.926 80.926 0 0 0 1.8-5.7 31.4 31.4 0 0 1 2.2-5.7c1.733-3.867 3.7-7.433 5.9-10.7 2.2-3.267 4.9-6.3 8.1-9.1 2.8-2.533 5.9-4.667 9.3-6.4 3.4-1.733 7.033-2.533 10.9-2.4 1.6.133 3.333.533 5.2 1.2.8.4 1.433.7 1.9.9.467.2 1.1-.033 1.9-.7.8-.533 1.633-1.167 2.5-1.9.867-.733 1.767-1.4 2.7-2 .933-.6 1.867-1 2.8-1.2.933-.2 1.933-.1 3 .3 1.333.533 1.767 1.633 1.3 3.3-.467 1.667-1.3 3.5-2.5 5.5s-2.467 3.9-3.8 5.7a960.16 960.16 0 0 1-2.6 3.5c-2.133 3.733-3.567 7.767-4.3 12.1-.733 4.333-1.5 8.5-2.3 12.5-.8 4.267-1.367 8.6-1.7 13-.333 4.4.3 8.667 1.9 12.8.667 1.6 1.567 2.967 2.7 4.1 1.133 1.133 2.633 1.433 4.5.9 1.867-.667 3.467-1.6 4.8-2.8a19.328 19.328 0 0 0 3.4-4 77.36 77.36 0 0 0 3.6-6.4c1.067-2.133 2-4.333 2.8-6.6.4-1.2.8-2.633 1.2-4.3.4-1.667.833-3.233 1.3-4.7.467-1.467.967-2.733 1.5-3.8.533-1.067 1.067-1.6 1.6-1.6.4 0 .533.433.4 1.3s-.367 1.867-.7 3a43.665 43.665 0 0 1-1.2 3.5c-.467 1.2-.833 2.2-1.1 3a226 226 0 0 0-1.6 5 32.59 32.59 0 0 1-2 5c-.8 1.6-1.633 3.2-2.5 4.8a41.064 41.064 0 0 1-2.9 4.6 22.326 22.326 0 0 1-3.6 3.9c-1.333 1.133-2.933 1.967-4.8 2.5-1.067.4-2.433.467-4.1.2-1.667-.267-3.033-.6-4.1-1-1.467-.667-2.7-1.567-3.7-2.7-1-1.133-1.9-2.367-2.7-3.7-1.6-2.8-2.6-5.733-3-8.8a19.7 19.7 0 0 1 0-5.6 10.618 10.618 0 0 0-.6-5.4c-1.867 2.133-3.367 4.633-4.5 7.5s-2.5 5.5-4.1 7.9c-1.333 2-2.967 4-4.9 6-1.933 2-4.1 3.2-6.5 3.6-2.133.4-4.333.3-6.6-.3-2.267-.6-4.067-1.833-5.4-3.7a8.8 8.8 0 0 1-1.4-3l-.8-3.2c-.667-3.733-1.033-7.133-1.1-10.2-.067-3.067.567-6.4 1.9-10zm10 27c.8 1.067 2 1.267 3.6.6 1.6-.667 2.933-1.333 4-2 2.667-1.867 4.767-4.433 6.3-7.7a417.497 417.497 0 0 1 4.5-9.3 48.427 48.427 0 0 0 2.5-4.9 41.352 41.352 0 0 0 1.9-5.3c.533-1.6 1.2-3.167 2-4.7.8-1.533 1.4-3.1 1.8-4.7.933-3.467 1.8-7 2.6-10.6.8-3.6 2.067-7 3.8-10.2.267-.533.6-1.133 1-1.8s.6-1.267.6-1.8c-.133-.667-.567-1.067-1.3-1.2-.733-.133-1.3-.267-1.7-.4-1.333-.267-2.7-.233-4.1.1-1.4.333-2.7.767-3.9 1.3-1.467.667-2.7 1.5-3.7 2.5l-3.1 3.1a168.467 168.467 0 0 0-3.7 4.2 47.279 47.279 0 0 0-3.3 4.4 75.862 75.862 0 0 1-2.6 4.4 75.862 75.862 0 0 0-2.6 4.4c-.8 1.6-1.433 3.233-1.9 4.9a57.132 57.132 0 0 1-1.7 5.1c-2.667 7.333-4.233 13.267-4.7 17.8-.467 4.533.767 8.467 3.7 11.8zm46-63.8c.4-.667.833-1.367 1.3-2.1.467-.733.633-1.567.5-2.5-1.467.8-2.533 2-3.2 3.6-.267.667-.567 1.5-.9 2.5-.333 1-.367 1.833-.1 2.5.267-.267.667-.833 1.2-1.7.533-.867.933-1.633 1.2-2.3zm53.6 13c.267-2 .633-4.2 1.1-6.6.467-2.4.433-4.6-.1-6.6-.267-1.067-.733-1.6-1.4-1.6-.667 0-1.367.267-2.1.8a17.658 17.658 0 0 0-2.1 1.8l-1.6 1.6a29.409 29.409 0 0 0-3.9 5.4c-1.133 2-2.233 3.933-3.3 5.8a222.96 222.96 0 0 0-6.4 11.7c-2 3.933-3.933 7.9-5.8 11.9-1.6 3.6-3.233 7.4-4.9 11.4-1.667 4-2.567 8-2.7 12-.133 1.6-.3 3-.5 4.2-.2 1.2-1.3 1.933-3.3 2.2-1.733.267-3.067-.067-4-1-.933-.933-1.667-2.133-2.2-3.6-1.333-4.133-1.8-8.467-1.4-13 .4-4.533.867-8.867 1.4-13 .4-4.267 1.033-8.4 1.9-12.4s2.167-7.933 3.9-11.8a19.847 19.847 0 0 1 2.5-4.1c1-1.267 2.433-1.5 4.3-.7 2.267.8 3.367 2.1 3.3 3.9a31.85 31.85 0 0 1-.7 5.5c-.667 2.4-1.267 4.8-1.8 7.2-.533 2.4-1 4.8-1.4 7.2a79.43 79.43 0 0 1-1.2 6.9c-.533 2.467-.667 4.767-.4 6.9a27.405 27.405 0 0 0 2.7-5.2 191.021 191.021 0 0 0 2.1-5.6 585.122 585.122 0 0 1 2.8-6.3c.933-2.067 1.933-4.1 3-6.1 2-3.867 4.1-7.633 6.3-11.3 2.2-3.667 4.633-7.233 7.3-10.7.8-1.2 1.733-2.367 2.8-3.5a23.832 23.832 0 0 1 3.4-3c1.2-.867 2.5-1.5 3.9-1.9 1.4-.4 2.9-.333 4.5.2 1.733.533 3.1 1.5 4.1 2.9 1 1.4 1.733 3 2.2 4.8.467 1.8.667 3.633.6 5.5-.067 1.867-.233 3.533-.5 5a817.38 817.38 0 0 1-2.1 13.5c-.733 4.467-1.567 8.9-2.5 13.3-.933 4.133-1.767 8.2-2.5 12.2-.733 4-.767 8.133-.1 12.4.267 1.6 1 2.733 2.2 3.4 1.2.667 2.533.733 4 .2 1.733-.667 3.167-1.967 4.3-3.9 1.133-1.933 2.1-3.633 2.9-5.1 1.067-1.867 2-3.767 2.8-5.7.8-1.933 1.6-3.833 2.4-5.7.133-.533.4-1.433.8-2.7.4-1.267.867-2.6 1.4-4 .533-1.4 1.033-2.6 1.5-3.6.467-1 .9-1.433 1.3-1.3.533.133.767.533.7 1.2-.067.667-.2 1.433-.4 2.3-.2.867-.467 1.7-.8 2.5s-.567 1.333-.7 1.6c-.533 1.6-1.167 3.2-1.9 4.8-.733 1.6-1.3 3.267-1.7 5-.667 2.533-1.733 5.333-3.2 8.4s-3.233 5.7-5.3 7.9c-2.067 2.2-4.467 3.6-7.2 4.2-2.733.6-5.567-.3-8.5-2.7-2.4-1.867-4.067-4.533-5-8-.933-3.467-1.2-6.667-.8-9.6 0-.4.233-2.233.7-5.5a629.948 629.948 0 0 1 1.7-11.1c.667-4.133 1.333-8.167 2-12.1s1.2-6.833 1.6-8.7zm27.6 12.8a64.318 64.318 0 0 1 5.6-9.8c2.133-3.067 4.8-5.8 8-8.2 2.267-1.733 4.533-3.2 6.8-4.4 2.267-1.2 4.8-1.8 7.6-1.8 1.2-.133 2.433-.033 3.7.3 1.267.333 2.433.7 3.5 1.1.667.267 1.433.667 2.3 1.2.867.533 1.633.6 2.3.2.533-.267.867-.967 1-2.1s.267-2.033.4-2.7c.8-4.4 1.8-8.8 3-13.2a197.85 197.85 0 0 1 4-12.6 237.018 237.018 0 0 1 4.8-12.4c1.6-3.867 3.5-7.5 5.7-10.9 2.2-3.4 4.567-6.7 7.1-9.9 2.267-2.8 4.967-5.567 8.1-8.3 3.133-2.733 6.567-4.367 10.3-4.9 1.6-.267 3.3-.3 5.1-.1 1.8.2 3.033 1.233 3.7 3.1.8 1.733 1.033 3.7.7 5.9-.333 2.2-.767 4.167-1.3 5.9-2.8 8.267-6.333 16.4-10.6 24.4a184.07 184.07 0 0 1-6.7 11.2 67.7 67.7 0 0 1-7.9 10 146.55 146.55 0 0 0-4.4 4.6 146.55 146.55 0 0 1-4.4 4.6 36.805 36.805 0 0 1-4.4 4.1c-1.6 1.267-2.933 2.633-4 4.1-1.067 1.467-1.7 3.167-1.9 5.1a45.1 45.1 0 0 1-.9 5.5 34.329 34.329 0 0 0-.9 6.9 78.125 78.125 0 0 1-.5 6.9c-.4 4.667-.633 9.267-.7 13.8-.067 4.533.1 9.133.5 13.8.4 4 .767 8 1.1 12 .333 4 1.5 7.8 3.5 11.4.8 1.333 1.833 2.733 3.1 4.2 1.267 1.467 2.7 2.333 4.3 2.6.8.133 1.567-.067 2.3-.6.733-.533 1.4-1.2 2-2 .6-.8 1.133-1.633 1.6-2.5.467-.867.833-1.633 1.1-2.3 1.733-3.333 3.133-6.933 4.2-10.8l2-6.4a52.958 52.958 0 0 0 1.6-6.6c.667-3.333 1.4-6.6 2.2-9.8.8-3.2 1.467-6.467 2-9.8.267-.8.433-1.633.5-2.5s.233-1.633.5-2.3c.533-.8.9-.8 1.1 0 .2.8.3 1.333.3 1.6a64.715 64.715 0 0 1-1 5.4 64.715 64.715 0 0 0-1 5.4c-.667 3.467-1.333 6.967-2 10.5a140.762 140.762 0 0 1-2.4 10.5c-.8 3.6-1.833 7.033-3.1 10.3a59.889 59.889 0 0 1-4.7 9.5c-1.333 2.267-3.033 3.733-5.1 4.4-2.067.667-4.233.667-6.5 0-3.067-.933-5.6-2.533-7.6-4.8a41.044 41.044 0 0 1-5.2-7.4c-1.733-3.067-2.8-6.233-3.2-9.5-.4-3.267-.733-6.567-1-9.9-.4-3.6-.6-7.133-.6-10.6.133-1.867.3-3.8.5-5.8s.1-3.933-.3-5.8c-.8.933-1.467 1.933-2 3a38.68 38.68 0 0 1-1.8 3.2c-.8 1.467-1.633 2.8-2.5 4-.867 1.2-1.767 2.467-2.7 3.8a130.217 130.217 0 0 1-4.8 6.9 24.829 24.829 0 0 1-6.2 5.9c-2 1.467-4.433 2.267-7.3 2.4s-5.367-.533-7.5-2c-2.133-1.6-3.667-3.733-4.6-6.4-.933-2.667-1.333-4.933-1.2-6.8 0-.133.067-1.1.2-2.9.133-1.8.4-3.9.8-6.3s.9-4.933 1.5-7.6 1.367-5 2.3-7zm10.8 35.8c1.467-.133 2.8-.667 4-1.6 1.2-.933 2.333-2 3.4-3.2a31.797 31.797 0 0 0 2.9-3.8 65.669 65.669 0 0 1 2.5-3.6c1.867-2.667 3.733-5.3 5.6-7.9 1.867-2.6 3.4-5.367 4.6-8.3a84.12 84.12 0 0 1 1.9-3.6c.6-1.067 1.033-2.333 1.3-3.8.267-1.6.4-3.2.4-4.8 0-1.6.133-3.2.4-4.8l1-4.5c.4-1.8.267-3.233-.4-4.3-.667-1.2-1.8-1.967-3.4-2.3-1.6-.333-3-.367-4.2-.1-3.067.533-5.833 1.9-8.3 4.1-2.467 2.2-4.633 4.433-6.5 6.7-4.133 4.933-7.2 10.5-9.2 16.7-2 6.2-3 12.433-3 18.7l.1 1.8c.067 1.2.333 2.467.8 3.8a10.874 10.874 0 0 0 2.1 3.6c.933 1.067 2.267 1.467 4 1.2zm79-131.6c-.533-.667-1.2-.867-2-.6s-1.467.467-2 .6c-1.467.267-2.867 1.033-4.2 2.3a120.83 120.83 0 0 1-3.6 3.3 47.656 47.656 0 0 0-7.1 8 92.204 92.204 0 0 0-5.7 9.2 76.832 76.832 0 0 0-4.7 10.5 9695.078 9695.078 0 0 0-3.9 10.9 112.017 112.017 0 0 0-3.4 11.4 179.16 179.16 0 0 0-2.4 11.6c-.133.533-.367 1.267-.7 2.2-.333.933-.367 1.667-.1 2.2.267.667.833.567 1.7-.3l1.7-1.7c1.333-1.2 2.633-2.4 3.9-3.6a43.05 43.05 0 0 0 3.7-4c2.533-2.8 5-5.633 7.4-8.5a60.484 60.484 0 0 0 6.4-9.3c1.867-3.067 3.633-6.2 5.3-9.4a59.45 59.45 0 0 0 4.1-10 86.615 86.615 0 0 1 4.4-10.4 24.274 24.274 0 0 0 2.6-11c0-1.067-.067-1.7-.2-1.9-.133-.2-.533-.7-1.2-1.5zm31.6 102c.667.267 1.367.233 2.1-.1a57.759 57.759 0 0 0 1.9-.9c.933-.4 1.967-.667 3.1-.8a6.574 6.574 0 0 0 3.1-1.2c1.467-1.067 2.467-1.633 3-1.7.533-.067 1.333-.833 2.4-2.3a15.08 15.08 0 0 0 1.7-2c.467-.667 1.033-.8 1.7-.4.933.533 1.067 1.267.4 2.2a19.043 19.043 0 0 1-2 2.4c-1.2 1.467-2.367 2.567-3.5 3.3-1.133.733-2.267 1.3-3.4 1.7-1.133.4-2.333.733-3.6 1s-2.7.6-4.3 1c-1.6.533-2.767 1.1-3.5 1.7-.733.6-1.3 1.767-1.7 3.5-1.067 4-2.6 7.867-4.6 11.6a51.657 51.657 0 0 1-6.3 9.1 23.856 23.856 0 0 1-8.9 6.5c-2.667 1.067-5.533 1.4-8.6 1-3.067-.4-5.8-1.333-8.2-2.8-2.933-1.867-5.1-4.5-6.5-7.9-1.4-3.4-2.3-6.7-2.7-9.9-.667-4.267-.333-8.333 1-12.2a49.547 49.547 0 0 1 5.4-11c.667-.8 1.267-1.633 1.8-2.5a47.43 47.43 0 0 1 1.8-2.7c.4-.667.5-1.467.3-2.4-.2-.933-.433-1.733-.7-2.4-.667-4.133-.333-7.867 1-11.2 1.2-3.333 3.133-6.067 5.8-8.2 2.667-2.133 5.8-3.2 9.4-3.2 3.467-.133 6.567.667 9.3 2.4 2.733 1.733 5.033 4.067 6.9 7 1.733 2.667 3 5.3 3.8 7.9.8 2.6 1.367 5.167 1.7 7.7.333 2.533.5 5.1.5 7.7 0 2.6.133 5.3.4 8.1zm-15-36.6c-1.867-.8-3.867-1.267-6-1.4s-4.133.133-6 .8c-2.267.8-3.833 2.433-4.7 4.9-.867 2.467-1.367 4.833-1.5 7.1a14.722 14.722 0 0 0-.1 3c.067 1.067.3 2.067.7 3 .533 1.067 1.267 1.733 2.2 2 .933.267 1.667.867 2.2 1.8.667 1.067.967 1.933.9 2.6-.067.667-.233 1.533-.5 2.6-.267 1.2.233 2.233 1.5 3.1s2.3 1.633 3.1 2.3c4.267 3.333 9.133 5.067 14.6 5.2.8.133 1.9.3 3.3.5s2.167-.3 2.3-1.5a135.2 135.2 0 0 0 0-10.4c-.133-3.6-.6-7.033-1.4-10.3-.8-3.267-2.067-6.233-3.8-8.9-1.733-2.667-4-4.8-6.8-6.4zm-18.6 67c1.733 2 3.733 2.9 6 2.7 2.267-.2 4.4-.833 6.4-1.9 4.667-2.667 8.333-6.333 11-11s4.667-9.533 6-14.6c.267-.8.167-1.367-.3-1.7-.467-.333-1.033-.533-1.7-.6a12.1 12.1 0 0 0-2.2 0c-.8.067-1.467.1-2 .1a45.857 45.857 0 0 1-7.9-1.5c-2.6-.733-5.1-1.833-7.5-3.3-.267-.133-.667-.433-1.2-.9a21.165 21.165 0 0 0-1.8-1.4c-.667-.467-1.3-.833-1.9-1.1-.6-.267-1.033-.267-1.3 0-.667.667-1.267 1.6-1.8 2.8-.533 1.2-.933 2.267-1.2 3.2-2.133 5.2-3.067 10.4-2.8 15.6.133 2 .567 4.4 1.3 7.2.733 2.8 1.7 4.933 2.9 6.4zm159.4-3.6c3.867-2.667 6.9-5.267 9.1-7.8 2.2-2.533 3.9-5.733 5.1-9.6a36.655 36.655 0 0 0 1.7-4.5c.467-1.533 1.367-2.633 2.7-3.3 1.2-.933 2.2-.867 3 .2.667.667.933 1.433.8 2.3-.133.867-.4 1.7-.8 2.5a35.616 35.616 0 0 1-1.9 4.9 115.456 115.456 0 0 1-2.5 4.9c-.8 1.6-1.833 3-3.1 4.2a58.602 58.602 0 0 0-3.5 3.6 46.903 46.903 0 0 1-8.7 6.2c-3.133 1.733-6.5 3-10.1 3.8-7.733 1.733-15.267 1.467-22.6-.8-3.467-.933-6.7-2.3-9.7-4.1-3-1.8-5.767-3.9-8.3-6.3-2.8-2.533-5.267-5.433-7.4-8.7a54.547 54.547 0 0 1-5.3-10.4 61.262 61.262 0 0 1-3.1-11.1c-.667-3.733-.933-7.333-.8-10.8.133-4 .633-7.9 1.5-11.7.867-3.8 1.833-7.7 2.9-11.7.4-1.067.433-1.8.1-2.2-.333-.4-1.033-.867-2.1-1.4-2.533-1.2-4.733-2.9-6.6-5.1-1.867-2.2-3.4-4.6-4.6-7.2a26.77 26.77 0 0 1-2.3-8.1c-.333-2.8-.3-5.467.1-8 .133-1.067.667-2.833 1.6-5.3a53.01 53.01 0 0 1 3.5-7.4c1.4-2.467 2.933-4.6 4.6-6.4 1.667-1.8 3.367-2.5 5.1-2.1.667.133 1.1.5 1.3 1.1.2.6.167 1.233-.1 1.9-.4.667-.933 1.3-1.6 1.9-.667.6-1.333 1.233-2 1.9-3.333 3.867-5.9 7.867-7.7 12-1.8 4.133-2.167 8.733-1.1 13.8.667 3.467 2 6.633 4 9.5s4.533 5.033 7.6 6.5c.533.267 1.033.067 1.5-.6.467-.667.9-1.5 1.3-2.5s.767-1.967 1.1-2.9c.333-.933.567-1.6.7-2 2.4-6 5.233-11.467 8.5-16.4a65.982 65.982 0 0 1 11.5-13.2c2.933-2.8 5.867-5.333 8.8-7.6 2.933-2.267 6.133-4.333 9.6-6.2 3.6-1.6 7.267-2.933 11-4 3.733-1.067 7.667-1.867 11.8-2.4 2.533-.267 5.2-.233 8 .1s5.533.967 8.2 1.9a37.024 37.024 0 0 1 7.5 3.6c2.333 1.467 4.233 3.133 5.7 5 2.133 3.067 3.6 6.267 4.4 9.6.8 3.467.867 7 .2 10.6a35.738 35.738 0 0 1-3.6 10.3 38.619 38.619 0 0 1-6.5 8.9c-2.6 2.667-5.433 4.8-8.5 6.4-1.6.933-3.5 1.733-5.7 2.4-2.2.667-4.4 1.033-6.6 1.1-2.2.067-4.3-.2-6.3-.8-2-.6-3.6-1.767-4.8-3.5-.8-1.2-1.333-2.367-1.6-3.5a63.868 63.868 0 0 0-1-3.7 53.584 53.584 0 0 0-7.1 4.9c-2.2 1.8-4.5 3.367-6.9 4.7-3.6 1.867-7.5 3.4-11.7 4.6-4.2 1.2-8.167 1.8-11.9 1.8-1.467-.133-2.433-.167-2.9-.1-.467.067-.9.833-1.3 2.3a144.756 144.756 0 0 0-3 17.2c-.4 5.867-.433 11.8-.1 17.8.333 6 1.7 11.467 4.1 16.4 2.267 5.2 5.6 9.133 10 11.8 6 3.467 12.233 5.367 18.7 5.7 6.467.333 12.5-1.3 18.1-4.9zm24.8-84.4c.933-1.2 1.933-2.6 3-4.2a74.112 74.112 0 0 0 3-4.9 51.507 51.507 0 0 0 2.5-5.1c.733-1.733 1.167-3.267 1.3-4.6.667-2.933.767-5.967.3-9.1s-1.833-5.767-4.1-7.9c-2.533-2.4-5.567-4.167-9.1-5.3-3.533-1.133-6.833-1.7-9.9-1.7-3.867.267-7.533 1.167-11 2.7a121.233 121.233 0 0 0-10.2 5.1c-7.2 4.267-13.3 9.467-18.3 15.6-5 6.133-9.3 12.733-12.9 19.8-.8 1.733-1.567 3.5-2.3 5.3-.733 1.8-1.433 3.633-2.1 5.5l-.9 1.8c-.333.667-.3 1.333.1 2 .667.667 2.2.833 4.6.5 2.4-.333 5-.833 7.8-1.5a79.132 79.132 0 0 0 7.9-2.3c2.467-.867 4.1-1.5 4.9-1.9.933-.533 2.2-1.3 3.8-2.3 1.6-1 3.2-2.067 4.8-3.2 1.6-1.133 3-2.3 4.2-3.5 1.2-1.2 1.933-2.267 2.2-3.2.133-.4.267-1.033.4-1.9s.367-1.733.7-2.6c.333-.867.733-1.567 1.2-2.1.467-.533 1.033-.733 1.7-.6.933.267 1.433.733 1.5 1.4.067.667-.067 1.4-.4 2.2-.333.8-.767 1.6-1.3 2.4-.533.8-.867 1.4-1 1.8-1.467 3.467-1.433 6.567.1 9.3 1.533 2.733 4.167 4.1 7.9 4.1 1.2 0 2.733-.4 4.6-1.2 1.867-.8 3.733-1.8 5.6-3a63.072 63.072 0 0 0 5.3-3.8c1.667-1.333 3.033-2.533 4.1-3.6zm57.2 57.6c.667.267 1.367.233 2.1-.1a57.759 57.759 0 0 0 1.9-.9c.933-.4 1.967-.667 3.1-.8a6.574 6.574 0 0 0 3.1-1.2c1.467-1.067 2.467-1.633 3-1.7.533-.067 1.333-.833 2.4-2.3a15.08 15.08 0 0 0 1.7-2c.467-.667 1.033-.8 1.7-.4.933.533 1.067 1.267.4 2.2a19.043 19.043 0 0 1-2 2.4c-1.2 1.467-2.367 2.567-3.5 3.3-1.133.733-2.267 1.3-3.4 1.7-1.133.4-2.333.733-3.6 1s-2.7.6-4.3 1c-1.6.533-2.767 1.1-3.5 1.7-.733.6-1.3 1.767-1.7 3.5-1.067 4-2.6 7.867-4.6 11.6a51.657 51.657 0 0 1-6.3 9.1 23.856 23.856 0 0 1-8.9 6.5c-2.667 1.067-5.533 1.4-8.6 1-3.067-.4-5.8-1.333-8.2-2.8-2.933-1.867-5.1-4.5-6.5-7.9-1.4-3.4-2.3-6.7-2.7-9.9-.667-4.267-.333-8.333 1-12.2a49.547 49.547 0 0 1 5.4-11c.667-.8 1.267-1.633 1.8-2.5a47.43 47.43 0 0 1 1.8-2.7c.4-.667.5-1.467.3-2.4-.2-.933-.433-1.733-.7-2.4-.667-4.133-.333-7.867 1-11.2 1.2-3.333 3.133-6.067 5.8-8.2 2.667-2.133 5.8-3.2 9.4-3.2 3.467-.133 6.567.667 9.3 2.4 2.733 1.733 5.033 4.067 6.9 7 1.733 2.667 3 5.3 3.8 7.9.8 2.6 1.367 5.167 1.7 7.7.333 2.533.5 5.1.5 7.7 0 2.6.133 5.3.4 8.1zm-15-36.6c-1.867-.8-3.867-1.267-6-1.4s-4.133.133-6 .8c-2.267.8-3.833 2.433-4.7 4.9-.867 2.467-1.367 4.833-1.5 7.1a14.722 14.722 0 0 0-.1 3c.067 1.067.3 2.067.7 3 .533 1.067 1.267 1.733 2.2 2 .933.267 1.667.867 2.2 1.8.667 1.067.967 1.933.9 2.6-.067.667-.233 1.533-.5 2.6-.267 1.2.233 2.233 1.5 3.1s2.3 1.633 3.1 2.3c4.267 3.333 9.133 5.067 14.6 5.2.8.133 1.9.3 3.3.5s2.167-.3 2.3-1.5a135.2 135.2 0 0 0 0-10.4c-.133-3.6-.6-7.033-1.4-10.3-.8-3.267-2.067-6.233-3.8-8.9-1.733-2.667-4-4.8-6.8-6.4zm-18.6 67c1.733 2 3.733 2.9 6 2.7 2.267-.2 4.4-.833 6.4-1.9 4.667-2.667 8.333-6.333 11-11s4.667-9.533 6-14.6c.267-.8.167-1.367-.3-1.7-.467-.333-1.033-.533-1.7-.6a12.1 12.1 0 0 0-2.2 0c-.8.067-1.467.1-2 .1a45.857 45.857 0 0 1-7.9-1.5c-2.6-.733-5.1-1.833-7.5-3.3-.267-.133-.667-.433-1.2-.9a21.165 21.165 0 0 0-1.8-1.4c-.667-.467-1.3-.833-1.9-1.1-.6-.267-1.033-.267-1.3 0-.667.667-1.267 1.6-1.8 2.8-.533 1.2-.933 2.267-1.2 3.2-2.133 5.2-3.067 10.4-2.8 15.6.133 2 .567 4.4 1.3 7.2.733 2.8 1.7 4.933 2.9 6.4zm90.6-25.4c.267-1.067.567-2 .9-2.8.333-.8.833-1.533 1.5-2.2.8-.933 1.3-.967 1.5-.1.2.867.167 1.567-.1 2.1a318.818 318.818 0 0 1-5.1 11.9c-1.667 3.667-3.9 7.233-6.7 10.7-1.733 2.267-3.833 4.3-6.3 6.1-2.467 1.8-5.1 3.133-7.9 4a22.056 22.056 0 0 1-8.6.9c-2.933-.267-5.667-1.333-8.2-3.2-3.067-2.133-5.367-4.867-6.9-8.2-1.533-3.333-2.367-6.8-2.5-10.4-.267-4-.033-8.167.7-12.5s1.833-8.3 3.3-11.9a48.649 48.649 0 0 1 2.3-5.4 33.966 33.966 0 0 1 2.9-4.8c2.667-3.467 5.367-6.5 8.1-9.1 2.733-2.6 6.167-3.9 10.3-3.9 2-.133 4.067.2 6.2 1 1.733.8 3.067 1.967 4 3.5.933 1.533 1.567 3.233 1.9 5.1.333 1.867.367 3.767.1 5.7a19.362 19.362 0 0 1-1.6 5.5 98.215 98.215 0 0 1-3.6 6.9c-1.333 2.333-2.867 4.367-4.6 6.1-1.6 1.733-3.233 3.233-4.9 4.5-1.667 1.267-3.767 1.767-6.3 1.5-2.267-.267-4.2-1.067-5.8-2.4a2.51 2.51 0 0 1-1-.6c-.533-.267-.8-.333-.8-.2-.133.8-.267 1.633-.4 2.5s-.267 1.767-.4 2.7c-.267 2.667-.433 5.3-.5 7.9-.067 2.6.367 5.167 1.3 7.7.4.933.9 2 1.5 3.2.6 1.2 1.3 2.333 2.1 3.4a10.342 10.342 0 0 0 2.8 2.6c1.067.667 2.2.867 3.4.6 1.867-.133 4.033-.8 6.5-2 2.467-1.2 4.967-3 7.5-5.4 2.533-2.4 4.967-5.333 7.3-8.8 2.333-3.467 4.367-7.533 6.1-12.2zm-30.6-1.4c1.733.533 3.533.167 5.4-1.1 1.867-1.267 3.333-2.433 4.4-3.5 2.933-2.8 5.333-6 7.2-9.6a49.075 49.075 0 0 0 2.5-6c.733-2.133.967-4.2.7-6.2-.267-1.467-.7-3.033-1.3-4.7-.6-1.667-1.7-2.633-3.3-2.9-1.733-.267-3.5.167-5.3 1.3-1.8 1.133-3.233 2.233-4.3 3.3a31.038 31.038 0 0 0-7 10.7c-1.6 4.067-3.133 8.1-4.6 12.1 0-.4.067-.333.2.2s.4 1.233.8 2.1.967 1.733 1.7 2.6 1.7 1.433 2.9 1.7zm78.8-76a343.078 343.078 0 0 1-5.6 11.1 131.065 131.065 0 0 1-6.2 10.5 381.339 381.339 0 0 1-6.5 10.2c-2.2 3.333-4.567 6.6-7.1 9.8a226.562 226.562 0 0 0-6.2 7.6c-1.867 2.4-3.8 4.733-5.8 7-.667.8-1.067 1.567-1.2 2.3a50.428 50.428 0 0 0-.4 2.7c-1.067 6.133-1.433 11.967-1.1 17.5.333 5.533.833 11.233 1.5 17.1a18.709 18.709 0 0 0 1.4 4.4c.667 1.467 1.8 2.533 3.4 3.2 1.6.667 3.133.733 4.6.2 1.467-.533 2.8-1.3 4-2.3 1.2-1 2.3-2.167 3.3-3.5 1-1.333 1.9-2.6 2.7-3.8a61.987 61.987 0 0 0 3-5 67.302 67.302 0 0 0 2.6-5.4c.4-.8.833-1.833 1.3-3.1.467-1.267.967-2.5 1.5-3.7.533-1.2 1.067-2.2 1.6-3 .533-.8 1-1.067 1.4-.8.4.267.567.8.5 1.6-.067.8-.267 1.667-.6 2.6-.333.933-.733 1.9-1.2 2.9-.467 1-.833 1.833-1.1 2.5l-2.8 5.6a70.19 70.19 0 0 1-3 5.4c-.8 1.333-1.767 2.8-2.9 4.4a40.24 40.24 0 0 1-3.7 4.5c-1.333 1.4-2.8 2.6-4.4 3.6-1.6 1-3.267 1.567-5 1.7-1.867.267-3.567.033-5.1-.7a16.314 16.314 0 0 1-4.2-2.9 19.788 19.788 0 0 1-3.3-4.1 23.053 23.053 0 0 1-2.2-4.7c-1.733-4.533-2.7-8.733-2.9-12.6-.2-3.867-.167-7.867.1-12 .267-4.4.633-8.733 1.1-13 .467-4.267 1.1-8.6 1.9-13 .267-2 .567-4.033.9-6.1.333-2.067.833-4.1 1.5-6.1a124.479 124.479 0 0 1 2.1-6.5 174.326 174.326 0 0 0 2.1-6.3c2.667-8.133 5.833-15.867 9.5-23.2 3.667-7.333 8.633-14.067 14.9-20.2 1.733-1.733 3.733-3.433 6-5.1 2.267-1.667 4.733-2.3 7.4-1.9 3.2.4 5.233 1.967 6.1 4.7s1.1 5.833.7 9.3c-.4 3.467-1.133 6.8-2.2 10-1.067 3.2-1.867 5.4-2.4 6.6zm.4-25.2c-1.733-.8-3.4-.733-5 .2s-2.933 1.933-4 3c-3.467 3.467-6.1 7.033-7.9 10.7a495.53 495.53 0 0 0-5.1 10.7c-2.133 4.267-4 8.633-5.6 13.1-1.6 4.467-3 9.033-4.2 13.7a489.292 489.292 0 0 1-1.6 6.6 166.72 166.72 0 0 1-1.8 6.6c-.533 2-1.133 4.167-1.8 6.5s-.867 4.567-.6 6.7c1.2-.667 2.333-1.7 3.4-3.1 1.067-1.4 2-2.633 2.8-3.7 3.467-4.267 6.7-8.5 9.7-12.7 3-4.2 5.767-8.433 8.3-12.7l5.2-8.8a81.767 81.767 0 0 0 4.6-9c.533-1.2 1.267-3.167 2.2-5.9.933-2.733 1.767-5.6 2.5-8.6.733-3 1.1-5.767 1.1-8.3 0-2.533-.733-4.2-2.2-5zm38.2-5.4c.667.8.933 1.833.8 3.1a181.835 181.835 0 0 1-.4 3.5 32.257 32.257 0 0 1-2 8.6c-1.067 2.8-2.2 5.533-3.4 8.2a44.485 44.485 0 0 1-4 7.7c-1.6 2.467-3.2 4.967-4.8 7.5a117.05 117.05 0 0 1-5 7.3 175.188 175.188 0 0 1-5.4 6.9 61.699 61.699 0 0 1-2.8 3 61.699 61.699 0 0 0-2.8 3l-3.2 2.8c-1.067.933-1.933 1.933-2.6 3s-1.067 2.267-1.2 3.6a41.38 41.38 0 0 1-.6 4 272.656 272.656 0 0 0-2.4 13.8 431.98 431.98 0 0 0-1.8 13.8l-.8 8.4c-.267 2.8-.2 5.6.2 8.4a88.825 88.825 0 0 0 3.8-11 71.695 71.695 0 0 1 4-11c1.6-3.467 3.2-7.133 4.8-11 1.6-3.867 3.8-7.2 6.6-10 2-2.133 4.333-3.567 7-4.3 2.667-.733 5.333-.3 8 1.3 1.733 1.067 2.933 2.4 3.6 4a16.3 16.3 0 0 1 1.2 5.1c.133 1.8.1 3.633-.1 5.5s-.3 3.6-.3 5.2a93.948 93.948 0 0 1-.6 6.5c-.267 2.067-.6 4.167-1 6.3-.533 2-.933 4.033-1.2 6.1-.267 2.067-.6 4.167-1 6.3-.4 2-.8 3.967-1.2 5.9-.4 1.933-.6 4.033-.6 6.3 0 1.6.067 3.467.2 5.6.133 2.133.8 3.8 2 5 1.333 1.333 2.667 1.567 4 .7 1.333-.867 2.6-2.167 3.8-3.9a36.42 36.42 0 0 0 3.1-5.4c.867-1.867 1.5-3.133 1.9-3.8.933-1.867 1.833-3.7 2.7-5.5.867-1.8 1.633-3.7 2.3-5.7.4-.8.767-1.833 1.1-3.1.333-1.267.667-2.5 1-3.7.333-1.2.733-2.167 1.2-2.9.467-.733.967-1.033 1.5-.9.533.133.767.6.7 1.4-.067.8-.267 1.733-.6 2.8a31.207 31.207 0 0 1-1.2 3.2c-.467 1.067-.9 2-1.3 2.8-.667 2-1.367 4-2.1 6-.733 2-1.5 3.933-2.3 5.8-1.333 3.067-3.133 6.233-5.4 9.5-2.267 3.267-5.133 5.367-8.6 6.3-2.133.533-4.033.467-5.7-.2-1.667-.667-3.033-1.7-4.1-3.1-1.067-1.4-1.933-3.033-2.6-4.9a21.058 21.058 0 0 1-1.2-5.6c-.4-4.267-.067-8.533 1-12.8 1.067-4.267 2-8.467 2.8-12.6.4-2 .767-4.033 1.1-6.1a65.01 65.01 0 0 0 .7-6.3c0-2.267.067-4.5.2-6.7s-.067-4.167-.6-5.9c-.267-.667-.667-1.333-1.2-2-.533-.667-1.2-1.067-2-1.2-.667-.133-1.433.2-2.3 1-.867.8-1.567 1.467-2.1 2a29.95 29.95 0 0 0-3.9 4.8 53.93 53.93 0 0 0-3.1 5.4 94.029 94.029 0 0 0-2.5 5.4 101.304 101.304 0 0 0-2.1 5.4 62.365 62.365 0 0 1-2.3 6.2c-.867 2-1.633 4.067-2.3 6.2-1.2 3.867-2.433 7.833-3.7 11.9-1.267 4.067-1.567 8.233-.9 12.5.133 1.6-.167 2.6-.9 3-.733.4-1.6.433-2.6.1-1-.333-2.033-.9-3.1-1.7-1.067-.8-1.8-1.6-2.2-2.4-.667-1.2-1-2.6-1-4.2V141c0-2-.033-4-.1-6s-.033-4 .1-6c.267-8 .833-15.933 1.7-23.8a304.463 304.463 0 0 1 3.5-23.4 239.252 239.252 0 0 1 5.4-21.4 123.03 123.03 0 0 1 8.2-20.4c1.467-3.2 3.1-6.233 4.9-9.1a71.61 71.61 0 0 1 6.1-8.3c2.133-2.533 4.533-4.467 7.2-5.8.933-.533 2.067-1.1 3.4-1.7 1.333-.6 2.7-1.033 4.1-1.3 1.4-.267 2.733-.3 4-.1 1.267.2 2.367.767 3.3 1.7zm-3.8 1c-1.333-.267-2.7.067-4.1 1-1.4.933-2.567 1.867-3.5 2.8a27.634 27.634 0 0 0-5.7 7 237.897 237.897 0 0 0-4.5 8.2 103.361 103.361 0 0 0-3.9 9.8 202.068 202.068 0 0 1-3.7 10c-1.2 3.333-2.3 6.7-3.3 10.1-1 3.4-1.7 6.833-2.1 10.3 2-1.467 3.8-3.3 5.4-5.5 1.6-2.2 3.2-4.233 4.8-6.1a105.09 105.09 0 0 0 5.1-6.7c1.533-2.2 3.033-4.5 4.5-6.9 1.333-2.267 2.7-4.5 4.1-6.7 1.4-2.2 2.7-4.5 3.9-6.9.533-.933 1.2-2.467 2-4.6a44.084 44.084 0 0 0 1.9-6.6c.467-2.267.7-4.3.7-6.1 0-1.8-.533-2.833-1.6-3.1zm63.4 102c.667.267 1.367.233 2.1-.1a57.76 57.76 0 0 0 1.9-.9c.933-.4 1.967-.667 3.1-.8a6.574 6.574 0 0 0 3.1-1.2c1.467-1.067 2.467-1.633 3-1.7.533-.067 1.333-.833 2.4-2.3a15.08 15.08 0 0 0 1.7-2c.467-.667 1.033-.8 1.7-.4.933.533 1.067 1.267.4 2.2a19.043 19.043 0 0 1-2 2.4c-1.2 1.467-2.367 2.567-3.5 3.3-1.133.733-2.267 1.3-3.4 1.7-1.133.4-2.333.733-3.6 1s-2.7.6-4.3 1c-1.6.533-2.767 1.1-3.5 1.7-.733.6-1.3 1.767-1.7 3.5-1.067 4-2.6 7.867-4.6 11.6a51.657 51.657 0 0 1-6.3 9.1 23.856 23.856 0 0 1-8.9 6.5c-2.667 1.067-5.533 1.4-8.6 1-3.067-.4-5.8-1.333-8.2-2.8-2.933-1.867-5.1-4.5-6.5-7.9-1.4-3.4-2.3-6.7-2.7-9.9-.667-4.267-.333-8.333 1-12.2a49.547 49.547 0 0 1 5.4-11c.667-.8 1.267-1.633 1.8-2.5a47.431 47.431 0 0 1 1.8-2.7c.4-.667.5-1.467.3-2.4-.2-.933-.433-1.733-.7-2.4-.667-4.133-.333-7.867 1-11.2 1.2-3.333 3.133-6.067 5.8-8.2 2.667-2.133 5.8-3.2 9.4-3.2 3.467-.133 6.567.667 9.3 2.4 2.733 1.733 5.033 4.067 6.9 7 1.733 2.667 3 5.3 3.8 7.9.8 2.6 1.367 5.167 1.7 7.7.333 2.533.5 5.1.5 7.7 0 2.6.133 5.3.4 8.1zm-15-36.6c-1.867-.8-3.867-1.267-6-1.4s-4.133.133-6 .8c-2.267.8-3.833 2.433-4.7 4.9-.867 2.467-1.367 4.833-1.5 7.1a14.722 14.722 0 0 0-.1 3c.067 1.067.3 2.067.7 3 .533 1.067 1.267 1.733 2.2 2 .933.267 1.667.867 2.2 1.8.667 1.067.967 1.933.9 2.6-.067.667-.233 1.533-.5 2.6-.267 1.2.233 2.233 1.5 3.1s2.3 1.633 3.1 2.3c4.267 3.333 9.133 5.067 14.6 5.2.8.133 1.9.3 3.3.5s2.167-.3 2.3-1.5c.133-3.333.133-6.8 0-10.4-.133-3.6-.6-7.033-1.4-10.3-.8-3.267-2.067-6.233-3.8-8.9-1.733-2.667-4-4.8-6.8-6.4zm-18.6 67c1.733 2 3.733 2.9 6 2.7 2.267-.2 4.4-.833 6.4-1.9 4.667-2.667 8.333-6.333 11-11s4.667-9.533 6-14.6c.267-.8.167-1.367-.3-1.7-.467-.333-1.033-.533-1.7-.6a12.1 12.1 0 0 0-2.2 0c-.8.067-1.467.1-2 .1a45.857 45.857 0 0 1-7.9-1.5c-2.6-.733-5.1-1.833-7.5-3.3-.267-.133-.667-.433-1.2-.9a21.165 21.165 0 0 0-1.8-1.4c-.667-.467-1.3-.833-1.9-1.1-.6-.267-1.033-.267-1.3 0-.667.667-1.267 1.6-1.8 2.8-.533 1.2-.933 2.267-1.2 3.2-2.133 5.2-3.067 10.4-2.8 15.6.133 2 .567 4.4 1.3 7.2.733 2.8 1.7 4.933 2.9 6.4z" fill="#FFF" fill-rule="evenodd"/></svg>