<svg width="1016" height="135" viewBox="0 0 1016 135" xmlns="http://www.w3.org/2000/svg"><path class="path" fill-rule="evenodd" stroke-width="2" fill="#FFF" d="M50.725 57.9h-20.1l3.9-54.9h-4.8l-4.35 60.3h10.8l-.45 8.4h-10.8l-4.5 63.3H.325L9.775 0h45l-4.05 57.9zm69.8 0h-20.1l3.9-54.9h-4.8l-4.35 60.3h10.8l-.45 8.4h-10.8l-4.05 57.9h4.8l3.6-52.5h20.1l-4.05 57.9h-45l9.45-135h45l-4.05 57.9zm59.3 13.2h9.6l-4.5 63.9h-20.1l4.5-65.1h-4.8l-4.5 65.1h-20.1l9.45-135h45l-4.5 63.9-10.05 7.2zm-5.7-68.1h-4.8l-4.35 62.1h4.8l4.35-62.1zm60.65 132l.15-69.9-4.95 69.9h-20.1l9.45-135h20.1l-.15 69.9 4.95-69.9h20.1l-9.45 135h-20.1zm89.9 0h-20.1l4.5-65.1h-4.8l-4.5 65.1h-20.1l9.45-135h45l-9.45 135zm-10.8-132h-4.8l-4.35 62.1h4.8l4.35-62.1zm60.5 132l.15-69.9-4.95 69.9h-20.1l9.45-135h20.1l-.15 69.9 4.95-69.9h20.1l-9.45 135h-20.1zm98.9-127.8l-8.55 120.6-10.05 7.2h-35.4l9.45-135h35.4l9.15 7.2zm-19.8-4.2h-4.8l-8.85 126.6h4.8L453.475 3zm90.2-3l-9.45 135h-45l9.45-135h45zm-20.25 3h-4.8l-8.85 126.6h4.8L523.425 3zm138.7 54.9h-20.1l3.9-54.9h-4.8l-8.85 126.6h4.8l3.6-52.5h20.1l-4.05 57.9h-45l9.45-135h45l-4.05 57.9zM735.975 0l-9.45 135h-45l9.45-135h45zm-20.25 3h-4.8l-8.85 126.6h4.8L715.725 3zm86 54.9h-20.1l3.9-54.9h-4.8l-4.35 60.3h10.8l-.45 8.4h-10.8l-4.05 57.9h4.8l3.6-52.5h20.1l-4.05 57.9h-45l9.45-135h45l-4.05 57.9zM830.575 0l-9.45 135h45l2.55-36h-20.1l-2.1 30.6h-4.8l9-129.6h-20.1zm90.05 0l-4.5 65.1h4.8l4.5-65.1h20.1l-9.45 135h-20.1l4.5-65.1h-4.8l-4.5 65.1h-20.1l9.45-135h20.1zm94.7 0l-9.45 135h-45l9.45-135h45zm-20.25 3h-4.8l-8.85 126.6h4.8L995.075 3z"/></svg>